<mxfile host="www.draw.io" modified="2019-10-16T01:03:08.973Z" agent="Mozilla/5.0 (Windows NT 10.0; Win64; x64) AppleWebKit/537.36 (KHTML, like Gecko) Chrome/75.0.3770.100 Safari/537.36" etag="2CiIohsS4gqXQUJkyyGE" version="12.1.1" type="github" pages="4">
  <diagram id="Xe6SVlZHeBMdEiDTbnsJ" name="第 1 页">
    <mxGraphModel dx="1180" dy="669" grid="1" gridSize="10" guides="1" tooltips="1" connect="1" arrows="1" fold="1" page="1" pageScale="1" pageWidth="827" pageHeight="1169" math="0" shadow="0">
      <root>
        <mxCell id="0"/>
        <mxCell id="1" parent="0"/>
        <mxCell id="moRpanTYxAYykleL3nLa-1" value="" style="ellipse;whiteSpace=wrap;html=1;aspect=fixed;fontStyle=1;strokeWidth=2;" parent="1" vertex="1">
          <mxGeometry x="95" y="50" width="30" height="30" as="geometry"/>
        </mxCell>
        <mxCell id="moRpanTYxAYykleL3nLa-21" style="edgeStyle=none;rounded=0;orthogonalLoop=1;jettySize=auto;html=1;exitX=0;exitY=1;exitDx=0;exitDy=0;entryX=0.5;entryY=0;entryDx=0;entryDy=0;endArrow=none;endFill=0;fontStyle=1;strokeWidth=2;" parent="1" source="moRpanTYxAYykleL3nLa-2" target="moRpanTYxAYykleL3nLa-3" edge="1">
          <mxGeometry relative="1" as="geometry"/>
        </mxCell>
        <mxCell id="moRpanTYxAYykleL3nLa-22" style="edgeStyle=none;rounded=0;orthogonalLoop=1;jettySize=auto;html=1;exitX=1;exitY=1;exitDx=0;exitDy=0;entryX=0;entryY=0.5;entryDx=0;entryDy=0;endArrow=none;endFill=0;fontStyle=1;strokeWidth=2;" parent="1" source="moRpanTYxAYykleL3nLa-2" target="moRpanTYxAYykleL3nLa-7" edge="1">
          <mxGeometry relative="1" as="geometry"/>
        </mxCell>
        <mxCell id="moRpanTYxAYykleL3nLa-2" value="7" style="ellipse;whiteSpace=wrap;html=1;aspect=fixed;fontStyle=1;strokeWidth=2;" parent="1" vertex="1">
          <mxGeometry x="95" y="50" width="30" height="30" as="geometry"/>
        </mxCell>
        <mxCell id="moRpanTYxAYykleL3nLa-3" value="8" style="ellipse;whiteSpace=wrap;html=1;aspect=fixed;fontStyle=1;strokeWidth=2;" parent="1" vertex="1">
          <mxGeometry x="30" y="100" width="30" height="30" as="geometry"/>
        </mxCell>
        <mxCell id="moRpanTYxAYykleL3nLa-13" style="edgeStyle=none;rounded=0;orthogonalLoop=1;jettySize=auto;html=1;exitX=1;exitY=0;exitDx=0;exitDy=0;entryX=0;entryY=0.5;entryDx=0;entryDy=0;endArrow=none;endFill=0;fontStyle=1;strokeWidth=2;" parent="1" source="moRpanTYxAYykleL3nLa-4" target="moRpanTYxAYykleL3nLa-9" edge="1">
          <mxGeometry relative="1" as="geometry"/>
        </mxCell>
        <mxCell id="moRpanTYxAYykleL3nLa-15" style="edgeStyle=none;rounded=0;orthogonalLoop=1;jettySize=auto;html=1;exitX=1;exitY=1;exitDx=0;exitDy=0;entryX=0;entryY=0;entryDx=0;entryDy=0;endArrow=none;endFill=0;fontStyle=1;strokeWidth=2;" parent="1" source="moRpanTYxAYykleL3nLa-4" target="moRpanTYxAYykleL3nLa-10" edge="1">
          <mxGeometry relative="1" as="geometry"/>
        </mxCell>
        <mxCell id="moRpanTYxAYykleL3nLa-4" value="2" style="ellipse;whiteSpace=wrap;html=1;aspect=fixed;fontStyle=1;strokeWidth=2;" parent="1" vertex="1">
          <mxGeometry x="240" y="100" width="30" height="30" as="geometry"/>
        </mxCell>
        <mxCell id="moRpanTYxAYykleL3nLa-19" style="edgeStyle=none;rounded=0;orthogonalLoop=1;jettySize=auto;html=1;exitX=0;exitY=0;exitDx=0;exitDy=0;entryX=0.5;entryY=1;entryDx=0;entryDy=0;endArrow=none;endFill=0;fontStyle=1;strokeWidth=2;" parent="1" source="moRpanTYxAYykleL3nLa-5" target="moRpanTYxAYykleL3nLa-3" edge="1">
          <mxGeometry relative="1" as="geometry"/>
        </mxCell>
        <mxCell id="moRpanTYxAYykleL3nLa-5" value="9" style="ellipse;whiteSpace=wrap;html=1;aspect=fixed;fontStyle=1;strokeWidth=2;" parent="1" vertex="1">
          <mxGeometry x="75" y="190" width="30" height="30" as="geometry"/>
        </mxCell>
        <mxCell id="moRpanTYxAYykleL3nLa-11" style="rounded=0;orthogonalLoop=1;jettySize=auto;html=1;entryX=0;entryY=0.5;entryDx=0;entryDy=0;endArrow=none;endFill=0;fillColor=#dae8fc;strokeColor=#6c8ebf;fontStyle=1;strokeWidth=2;" parent="1" source="moRpanTYxAYykleL3nLa-6" target="moRpanTYxAYykleL3nLa-4" edge="1">
          <mxGeometry relative="1" as="geometry"/>
        </mxCell>
        <mxCell id="moRpanTYxAYykleL3nLa-12" style="edgeStyle=none;rounded=0;orthogonalLoop=1;jettySize=auto;html=1;exitX=0.5;exitY=0;exitDx=0;exitDy=0;entryX=0;entryY=1;entryDx=0;entryDy=0;endArrow=none;endFill=0;fillColor=#dae8fc;strokeColor=#6c8ebf;fontStyle=1;strokeWidth=2;" parent="1" source="moRpanTYxAYykleL3nLa-6" target="moRpanTYxAYykleL3nLa-7" edge="1">
          <mxGeometry relative="1" as="geometry"/>
        </mxCell>
        <mxCell id="moRpanTYxAYykleL3nLa-17" style="edgeStyle=none;rounded=0;orthogonalLoop=1;jettySize=auto;html=1;exitX=0.5;exitY=1;exitDx=0;exitDy=0;entryX=0;entryY=0;entryDx=0;entryDy=0;endArrow=none;endFill=0;fillColor=#dae8fc;strokeColor=#6c8ebf;fontStyle=1;strokeWidth=2;" parent="1" source="moRpanTYxAYykleL3nLa-6" target="moRpanTYxAYykleL3nLa-8" edge="1">
          <mxGeometry relative="1" as="geometry"/>
        </mxCell>
        <mxCell id="moRpanTYxAYykleL3nLa-6" value="1" style="ellipse;whiteSpace=wrap;html=1;aspect=fixed;fillColor=#dae8fc;strokeColor=#6c8ebf;fontStyle=1;strokeWidth=2;" parent="1" vertex="1">
          <mxGeometry x="145" y="115" width="30" height="30" as="geometry"/>
        </mxCell>
        <mxCell id="moRpanTYxAYykleL3nLa-7" value="5" style="ellipse;whiteSpace=wrap;html=1;aspect=fixed;fontStyle=1;strokeWidth=2;" parent="1" vertex="1">
          <mxGeometry x="240" y="35" width="30" height="30" as="geometry"/>
        </mxCell>
        <mxCell id="moRpanTYxAYykleL3nLa-16" style="edgeStyle=none;rounded=0;orthogonalLoop=1;jettySize=auto;html=1;exitX=1;exitY=0;exitDx=0;exitDy=0;entryX=0;entryY=1;entryDx=0;entryDy=0;endArrow=none;endFill=0;fontStyle=1;strokeWidth=2;" parent="1" source="moRpanTYxAYykleL3nLa-8" target="moRpanTYxAYykleL3nLa-4" edge="1">
          <mxGeometry relative="1" as="geometry"/>
        </mxCell>
        <mxCell id="moRpanTYxAYykleL3nLa-20" style="edgeStyle=none;rounded=0;orthogonalLoop=1;jettySize=auto;html=1;exitX=0;exitY=0.5;exitDx=0;exitDy=0;entryX=1;entryY=0.5;entryDx=0;entryDy=0;endArrow=none;endFill=0;fontStyle=1;strokeWidth=2;" parent="1" source="moRpanTYxAYykleL3nLa-8" target="moRpanTYxAYykleL3nLa-3" edge="1">
          <mxGeometry relative="1" as="geometry"/>
        </mxCell>
        <mxCell id="moRpanTYxAYykleL3nLa-8" value="6" style="ellipse;whiteSpace=wrap;html=1;aspect=fixed;fontStyle=1;strokeWidth=2;" parent="1" vertex="1">
          <mxGeometry x="160" y="210" width="30" height="30" as="geometry"/>
        </mxCell>
        <mxCell id="moRpanTYxAYykleL3nLa-14" style="edgeStyle=none;rounded=0;orthogonalLoop=1;jettySize=auto;html=1;exitX=0.5;exitY=1;exitDx=0;exitDy=0;entryX=1;entryY=0;entryDx=0;entryDy=0;endArrow=none;endFill=0;fontStyle=1;strokeWidth=2;" parent="1" source="moRpanTYxAYykleL3nLa-9" target="moRpanTYxAYykleL3nLa-10" edge="1">
          <mxGeometry relative="1" as="geometry"/>
        </mxCell>
        <mxCell id="moRpanTYxAYykleL3nLa-9" value="4" style="ellipse;whiteSpace=wrap;html=1;aspect=fixed;fontStyle=1;strokeWidth=2;" parent="1" vertex="1">
          <mxGeometry x="330" y="70" width="30" height="30" as="geometry"/>
        </mxCell>
        <mxCell id="moRpanTYxAYykleL3nLa-23" style="edgeStyle=none;rounded=0;orthogonalLoop=1;jettySize=auto;html=1;exitX=0;exitY=0.5;exitDx=0;exitDy=0;entryX=1;entryY=0.5;entryDx=0;entryDy=0;endArrow=none;endFill=0;fontStyle=1;strokeWidth=2;" parent="1" source="moRpanTYxAYykleL3nLa-10" target="moRpanTYxAYykleL3nLa-8" edge="1">
          <mxGeometry relative="1" as="geometry"/>
        </mxCell>
        <mxCell id="moRpanTYxAYykleL3nLa-10" value="3" style="ellipse;whiteSpace=wrap;html=1;aspect=fixed;fontStyle=1;strokeWidth=2;" parent="1" vertex="1">
          <mxGeometry x="290" y="150" width="30" height="30" as="geometry"/>
        </mxCell>
        <mxCell id="moRpanTYxAYykleL3nLa-24" value="" style="shape=flexArrow;endArrow=classic;html=1;fontStyle=1;strokeWidth=2;endWidth=18;endSize=7.75;" parent="1" edge="1">
          <mxGeometry width="50" height="50" relative="1" as="geometry">
            <mxPoint x="690" y="102.5" as="sourcePoint"/>
            <mxPoint x="740" y="102.5" as="targetPoint"/>
          </mxGeometry>
        </mxCell>
        <mxCell id="f_aJBle8beTOFBzlio4E-4" style="edgeStyle=none;rounded=0;orthogonalLoop=1;jettySize=auto;html=1;exitX=1;exitY=0.5;exitDx=0;exitDy=0;entryX=0;entryY=0.5;entryDx=0;entryDy=0;endArrow=none;endFill=0;fontStyle=1;strokeWidth=2;" parent="1" source="f_aJBle8beTOFBzlio4E-1" target="f_aJBle8beTOFBzlio4E-3" edge="1">
          <mxGeometry relative="1" as="geometry"/>
        </mxCell>
        <mxCell id="f_aJBle8beTOFBzlio4E-1" value="2" style="ellipse;whiteSpace=wrap;html=1;aspect=fixed;fontStyle=1;strokeWidth=2;" parent="1" vertex="1">
          <mxGeometry x="795" y="80" width="30" height="30" as="geometry"/>
        </mxCell>
        <mxCell id="f_aJBle8beTOFBzlio4E-2" value="4" style="ellipse;whiteSpace=wrap;html=1;aspect=fixed;fontStyle=1;strokeWidth=2;" parent="1" vertex="1">
          <mxGeometry x="985" y="80" width="30" height="30" as="geometry"/>
        </mxCell>
        <mxCell id="f_aJBle8beTOFBzlio4E-5" style="edgeStyle=none;rounded=0;orthogonalLoop=1;jettySize=auto;html=1;exitX=1;exitY=0.5;exitDx=0;exitDy=0;endArrow=none;endFill=0;fontStyle=1;strokeWidth=2;" parent="1" source="f_aJBle8beTOFBzlio4E-3" target="f_aJBle8beTOFBzlio4E-2" edge="1">
          <mxGeometry relative="1" as="geometry"/>
        </mxCell>
        <mxCell id="f_aJBle8beTOFBzlio4E-3" value="3" style="ellipse;whiteSpace=wrap;html=1;aspect=fixed;fontStyle=1;strokeWidth=2;" parent="1" vertex="1">
          <mxGeometry x="890" y="80" width="30" height="30" as="geometry"/>
        </mxCell>
        <mxCell id="f_aJBle8beTOFBzlio4E-6" value="当前节点为节点1" style="text;html=1;strokeColor=none;fillColor=none;align=center;verticalAlign=middle;whiteSpace=wrap;rounded=0;fontStyle=1;strokeWidth=2;" parent="1" vertex="1">
          <mxGeometry x="95" y="260" width="130" height="20" as="geometry"/>
        </mxCell>
        <mxCell id="f_aJBle8beTOFBzlio4E-7" value="以节点1的邻居节点2游走得到游走序列的attribute&lt;br&gt;作为输入" style="text;html=1;strokeColor=none;fillColor=none;align=center;verticalAlign=middle;whiteSpace=wrap;rounded=0;fontStyle=1;strokeWidth=2;" parent="1" vertex="1">
          <mxGeometry x="770" y="120" width="270" height="30" as="geometry"/>
        </mxCell>
        <mxCell id="f_aJBle8beTOFBzlio4E-8" value="Input" style="text;html=1;strokeColor=none;fillColor=none;align=center;verticalAlign=middle;whiteSpace=wrap;rounded=0;strokeWidth=2;fontSize=14;fontStyle=1" parent="1" vertex="1">
          <mxGeometry x="790" y="35" width="40" height="20" as="geometry"/>
        </mxCell>
        <mxCell id="f_aJBle8beTOFBzlio4E-9" value="Dense" style="rounded=0;whiteSpace=wrap;html=1;strokeWidth=2;fontSize=14;fontStyle=1" parent="1" vertex="1">
          <mxGeometry x="845" y="230" width="120" height="60" as="geometry"/>
        </mxCell>
        <mxCell id="f_aJBle8beTOFBzlio4E-10" value="" style="shape=flexArrow;endArrow=classic;html=1;fontSize=14;fontStyle=1;strokeWidth=2;" parent="1" edge="1">
          <mxGeometry width="50" height="50" relative="1" as="geometry">
            <mxPoint x="905" y="160" as="sourcePoint"/>
            <mxPoint x="905" y="220" as="targetPoint"/>
          </mxGeometry>
        </mxCell>
        <mxCell id="f_aJBle8beTOFBzlio4E-12" value="" style="shape=flexArrow;endArrow=classic;html=1;fontSize=14;fontStyle=1;strokeWidth=2;" parent="1" edge="1">
          <mxGeometry width="50" height="50" relative="1" as="geometry">
            <mxPoint x="905" y="300" as="sourcePoint"/>
            <mxPoint x="905" y="360" as="targetPoint"/>
          </mxGeometry>
        </mxCell>
        <mxCell id="f_aJBle8beTOFBzlio4E-13" value="1" style="ellipse;whiteSpace=wrap;html=1;aspect=fixed;fillColor=#dae8fc;strokeColor=#6c8ebf;fontStyle=1;strokeWidth=2;" parent="1" vertex="1">
          <mxGeometry x="890" y="370" width="30" height="30" as="geometry"/>
        </mxCell>
        <mxCell id="CMku2ylVyWzplMdarEAw-1" value="" style="shape=flexArrow;endArrow=classic;html=1;fontStyle=1;strokeWidth=2;endWidth=18;endSize=7.75;" edge="1" parent="1">
          <mxGeometry width="50" height="50" relative="1" as="geometry">
            <mxPoint x="380" y="102.5" as="sourcePoint"/>
            <mxPoint x="430" y="102.5" as="targetPoint"/>
          </mxGeometry>
        </mxCell>
        <mxCell id="CMku2ylVyWzplMdarEAw-2" style="edgeStyle=none;rounded=0;orthogonalLoop=1;jettySize=auto;html=1;exitX=1;exitY=0.5;exitDx=0;exitDy=0;entryX=0;entryY=0.5;entryDx=0;entryDy=0;endArrow=none;endFill=0;fontStyle=1;strokeWidth=2;" edge="1" parent="1" source="CMku2ylVyWzplMdarEAw-3" target="CMku2ylVyWzplMdarEAw-6">
          <mxGeometry relative="1" as="geometry"/>
        </mxCell>
        <mxCell id="CMku2ylVyWzplMdarEAw-3" value="2" style="ellipse;whiteSpace=wrap;html=1;aspect=fixed;fontStyle=1;strokeWidth=2;" vertex="1" parent="1">
          <mxGeometry x="440" y="50" width="30" height="30" as="geometry"/>
        </mxCell>
        <mxCell id="CMku2ylVyWzplMdarEAw-4" value="4" style="ellipse;whiteSpace=wrap;html=1;aspect=fixed;fontStyle=1;strokeWidth=2;" vertex="1" parent="1">
          <mxGeometry x="630" y="50" width="30" height="30" as="geometry"/>
        </mxCell>
        <mxCell id="CMku2ylVyWzplMdarEAw-5" style="edgeStyle=none;rounded=0;orthogonalLoop=1;jettySize=auto;html=1;exitX=1;exitY=0.5;exitDx=0;exitDy=0;endArrow=none;endFill=0;fontStyle=1;strokeWidth=2;" edge="1" parent="1" source="CMku2ylVyWzplMdarEAw-6" target="CMku2ylVyWzplMdarEAw-4">
          <mxGeometry relative="1" as="geometry"/>
        </mxCell>
        <mxCell id="CMku2ylVyWzplMdarEAw-6" value="3" style="ellipse;whiteSpace=wrap;html=1;aspect=fixed;fontStyle=1;strokeWidth=2;" vertex="1" parent="1">
          <mxGeometry x="535" y="50" width="30" height="30" as="geometry"/>
        </mxCell>
        <mxCell id="CMku2ylVyWzplMdarEAw-7" style="edgeStyle=none;rounded=0;orthogonalLoop=1;jettySize=auto;html=1;exitX=1;exitY=0.5;exitDx=0;exitDy=0;entryX=0;entryY=0.5;entryDx=0;entryDy=0;endArrow=none;endFill=0;fontStyle=1;strokeWidth=2;" edge="1" parent="1" source="CMku2ylVyWzplMdarEAw-8" target="CMku2ylVyWzplMdarEAw-11">
          <mxGeometry relative="1" as="geometry"/>
        </mxCell>
        <mxCell id="CMku2ylVyWzplMdarEAw-8" value="2" style="ellipse;whiteSpace=wrap;html=1;aspect=fixed;fontStyle=1;strokeWidth=2;" vertex="1" parent="1">
          <mxGeometry x="440" y="102.5" width="30" height="30" as="geometry"/>
        </mxCell>
        <mxCell id="CMku2ylVyWzplMdarEAw-9" value="3" style="ellipse;whiteSpace=wrap;html=1;aspect=fixed;fontStyle=1;strokeWidth=2;" vertex="1" parent="1">
          <mxGeometry x="630" y="102.5" width="30" height="30" as="geometry"/>
        </mxCell>
        <mxCell id="CMku2ylVyWzplMdarEAw-10" style="edgeStyle=none;rounded=0;orthogonalLoop=1;jettySize=auto;html=1;exitX=1;exitY=0.5;exitDx=0;exitDy=0;endArrow=none;endFill=0;fontStyle=1;strokeWidth=2;" edge="1" parent="1" source="CMku2ylVyWzplMdarEAw-11" target="CMku2ylVyWzplMdarEAw-9">
          <mxGeometry relative="1" as="geometry"/>
        </mxCell>
        <mxCell id="CMku2ylVyWzplMdarEAw-11" value="6" style="ellipse;whiteSpace=wrap;html=1;aspect=fixed;fontStyle=1;strokeWidth=2;" vertex="1" parent="1">
          <mxGeometry x="535" y="102.5" width="30" height="30" as="geometry"/>
        </mxCell>
        <mxCell id="CMku2ylVyWzplMdarEAw-12" style="edgeStyle=none;rounded=0;orthogonalLoop=1;jettySize=auto;html=1;exitX=1;exitY=0.5;exitDx=0;exitDy=0;entryX=0;entryY=0.5;entryDx=0;entryDy=0;endArrow=none;endFill=0;fontStyle=1;strokeWidth=2;" edge="1" parent="1" source="CMku2ylVyWzplMdarEAw-13" target="CMku2ylVyWzplMdarEAw-16">
          <mxGeometry relative="1" as="geometry"/>
        </mxCell>
        <mxCell id="CMku2ylVyWzplMdarEAw-13" value="5" style="ellipse;whiteSpace=wrap;html=1;aspect=fixed;fontStyle=1;strokeWidth=2;" vertex="1" parent="1">
          <mxGeometry x="440" y="157.5" width="30" height="30" as="geometry"/>
        </mxCell>
        <mxCell id="CMku2ylVyWzplMdarEAw-14" value="1" style="ellipse;whiteSpace=wrap;html=1;aspect=fixed;fontStyle=1;strokeWidth=2;" vertex="1" parent="1">
          <mxGeometry x="630" y="157.5" width="30" height="30" as="geometry"/>
        </mxCell>
        <mxCell id="CMku2ylVyWzplMdarEAw-15" style="edgeStyle=none;rounded=0;orthogonalLoop=1;jettySize=auto;html=1;exitX=1;exitY=0.5;exitDx=0;exitDy=0;endArrow=none;endFill=0;fontStyle=1;strokeWidth=2;" edge="1" parent="1" source="CMku2ylVyWzplMdarEAw-16" target="CMku2ylVyWzplMdarEAw-14">
          <mxGeometry relative="1" as="geometry"/>
        </mxCell>
        <mxCell id="CMku2ylVyWzplMdarEAw-16" value="7" style="ellipse;whiteSpace=wrap;html=1;aspect=fixed;fontStyle=1;strokeWidth=2;" vertex="1" parent="1">
          <mxGeometry x="535" y="157.5" width="30" height="30" as="geometry"/>
        </mxCell>
        <mxCell id="CMku2ylVyWzplMdarEAw-17" style="edgeStyle=none;rounded=0;orthogonalLoop=1;jettySize=auto;html=1;exitX=1;exitY=0.5;exitDx=0;exitDy=0;entryX=0;entryY=0.5;entryDx=0;entryDy=0;endArrow=none;endFill=0;fontStyle=1;strokeWidth=2;" edge="1" parent="1" source="CMku2ylVyWzplMdarEAw-18" target="CMku2ylVyWzplMdarEAw-21">
          <mxGeometry relative="1" as="geometry"/>
        </mxCell>
        <mxCell id="CMku2ylVyWzplMdarEAw-18" value="6" style="ellipse;whiteSpace=wrap;html=1;aspect=fixed;fontStyle=1;strokeWidth=2;" vertex="1" parent="1">
          <mxGeometry x="440" y="250" width="30" height="30" as="geometry"/>
        </mxCell>
        <mxCell id="CMku2ylVyWzplMdarEAw-19" value="4" style="ellipse;whiteSpace=wrap;html=1;aspect=fixed;fontStyle=1;strokeWidth=2;" vertex="1" parent="1">
          <mxGeometry x="630" y="250" width="30" height="30" as="geometry"/>
        </mxCell>
        <mxCell id="CMku2ylVyWzplMdarEAw-20" style="edgeStyle=none;rounded=0;orthogonalLoop=1;jettySize=auto;html=1;exitX=1;exitY=0.5;exitDx=0;exitDy=0;endArrow=none;endFill=0;fontStyle=1;strokeWidth=2;" edge="1" parent="1" source="CMku2ylVyWzplMdarEAw-21" target="CMku2ylVyWzplMdarEAw-19">
          <mxGeometry relative="1" as="geometry"/>
        </mxCell>
        <mxCell id="CMku2ylVyWzplMdarEAw-21" value="3" style="ellipse;whiteSpace=wrap;html=1;aspect=fixed;fontStyle=1;strokeWidth=2;" vertex="1" parent="1">
          <mxGeometry x="535" y="250" width="30" height="30" as="geometry"/>
        </mxCell>
        <mxCell id="CMku2ylVyWzplMdarEAw-22" value="&lt;b&gt;&lt;font style=&quot;font-size: 16px&quot;&gt;......&lt;/font&gt;&lt;/b&gt;" style="text;html=1;strokeColor=none;fillColor=none;align=center;verticalAlign=middle;whiteSpace=wrap;rounded=0;" vertex="1" parent="1">
          <mxGeometry x="530" y="205" width="40" height="20" as="geometry"/>
        </mxCell>
      </root>
    </mxGraphModel>
  </diagram>
  <diagram id="upKyAIRAUReAYwCcCnKJ" name="第 2 页">
    <mxGraphModel dx="1180" dy="713" grid="1" gridSize="10" guides="1" tooltips="1" connect="1" arrows="1" fold="1" page="1" pageScale="1" pageWidth="827" pageHeight="1169" math="0" shadow="0">
      <root>
        <mxCell id="wxEZKx46-ez3M-9u-9HB-0"/>
        <mxCell id="wxEZKx46-ez3M-9u-9HB-1" parent="wxEZKx46-ez3M-9u-9HB-0"/>
        <mxCell id="Qd4Q2_kLt2G5wtyXQNls-0" value="" style="ellipse;whiteSpace=wrap;html=1;aspect=fixed;fontStyle=1;strokeWidth=2;" parent="wxEZKx46-ez3M-9u-9HB-1" vertex="1">
          <mxGeometry x="95" y="50" width="30" height="30" as="geometry"/>
        </mxCell>
        <mxCell id="Qd4Q2_kLt2G5wtyXQNls-1" style="edgeStyle=none;rounded=0;orthogonalLoop=1;jettySize=auto;html=1;exitX=0;exitY=1;exitDx=0;exitDy=0;entryX=0.5;entryY=0;entryDx=0;entryDy=0;endArrow=none;endFill=0;fontStyle=1;strokeWidth=2;" parent="wxEZKx46-ez3M-9u-9HB-1" source="Qd4Q2_kLt2G5wtyXQNls-3" target="Qd4Q2_kLt2G5wtyXQNls-4" edge="1">
          <mxGeometry relative="1" as="geometry"/>
        </mxCell>
        <mxCell id="Qd4Q2_kLt2G5wtyXQNls-2" style="edgeStyle=none;rounded=0;orthogonalLoop=1;jettySize=auto;html=1;exitX=1;exitY=1;exitDx=0;exitDy=0;entryX=0;entryY=0.5;entryDx=0;entryDy=0;endArrow=none;endFill=0;fontStyle=1;strokeWidth=2;" parent="wxEZKx46-ez3M-9u-9HB-1" source="Qd4Q2_kLt2G5wtyXQNls-3" target="Qd4Q2_kLt2G5wtyXQNls-14" edge="1">
          <mxGeometry relative="1" as="geometry"/>
        </mxCell>
        <mxCell id="Qd4Q2_kLt2G5wtyXQNls-3" value="7" style="ellipse;whiteSpace=wrap;html=1;aspect=fixed;fontStyle=1;strokeWidth=2;" parent="wxEZKx46-ez3M-9u-9HB-1" vertex="1">
          <mxGeometry x="95" y="50" width="30" height="30" as="geometry"/>
        </mxCell>
        <mxCell id="Qd4Q2_kLt2G5wtyXQNls-4" value="8" style="ellipse;whiteSpace=wrap;html=1;aspect=fixed;fontStyle=1;strokeWidth=2;" parent="wxEZKx46-ez3M-9u-9HB-1" vertex="1">
          <mxGeometry x="30" y="100" width="30" height="30" as="geometry"/>
        </mxCell>
        <mxCell id="Qd4Q2_kLt2G5wtyXQNls-5" style="edgeStyle=none;rounded=0;orthogonalLoop=1;jettySize=auto;html=1;exitX=1;exitY=0;exitDx=0;exitDy=0;entryX=0;entryY=0.5;entryDx=0;entryDy=0;endArrow=none;endFill=0;fontStyle=1;strokeWidth=2;" parent="wxEZKx46-ez3M-9u-9HB-1" source="Qd4Q2_kLt2G5wtyXQNls-7" target="Qd4Q2_kLt2G5wtyXQNls-19" edge="1">
          <mxGeometry relative="1" as="geometry"/>
        </mxCell>
        <mxCell id="Qd4Q2_kLt2G5wtyXQNls-6" style="edgeStyle=none;rounded=0;orthogonalLoop=1;jettySize=auto;html=1;exitX=1;exitY=1;exitDx=0;exitDy=0;entryX=0;entryY=0;entryDx=0;entryDy=0;endArrow=none;endFill=0;fontStyle=1;strokeWidth=2;" parent="wxEZKx46-ez3M-9u-9HB-1" source="Qd4Q2_kLt2G5wtyXQNls-7" target="Qd4Q2_kLt2G5wtyXQNls-21" edge="1">
          <mxGeometry relative="1" as="geometry"/>
        </mxCell>
        <mxCell id="Qd4Q2_kLt2G5wtyXQNls-7" value="2" style="ellipse;whiteSpace=wrap;html=1;aspect=fixed;fontStyle=1;strokeWidth=2;" parent="wxEZKx46-ez3M-9u-9HB-1" vertex="1">
          <mxGeometry x="240" y="100" width="30" height="30" as="geometry"/>
        </mxCell>
        <mxCell id="Qd4Q2_kLt2G5wtyXQNls-8" style="edgeStyle=none;rounded=0;orthogonalLoop=1;jettySize=auto;html=1;exitX=0;exitY=0;exitDx=0;exitDy=0;entryX=0.5;entryY=1;entryDx=0;entryDy=0;endArrow=none;endFill=0;fontStyle=1;strokeWidth=2;" parent="wxEZKx46-ez3M-9u-9HB-1" source="Qd4Q2_kLt2G5wtyXQNls-9" target="Qd4Q2_kLt2G5wtyXQNls-4" edge="1">
          <mxGeometry relative="1" as="geometry"/>
        </mxCell>
        <mxCell id="Qd4Q2_kLt2G5wtyXQNls-9" value="9" style="ellipse;whiteSpace=wrap;html=1;aspect=fixed;fontStyle=1;strokeWidth=2;" parent="wxEZKx46-ez3M-9u-9HB-1" vertex="1">
          <mxGeometry x="75" y="190" width="30" height="30" as="geometry"/>
        </mxCell>
        <mxCell id="Qd4Q2_kLt2G5wtyXQNls-10" style="rounded=0;orthogonalLoop=1;jettySize=auto;html=1;entryX=0;entryY=0.5;entryDx=0;entryDy=0;endArrow=none;endFill=0;fillColor=#dae8fc;strokeColor=#6c8ebf;fontStyle=1;strokeWidth=2;" parent="wxEZKx46-ez3M-9u-9HB-1" source="Qd4Q2_kLt2G5wtyXQNls-13" target="Qd4Q2_kLt2G5wtyXQNls-7" edge="1">
          <mxGeometry relative="1" as="geometry"/>
        </mxCell>
        <mxCell id="Qd4Q2_kLt2G5wtyXQNls-11" style="edgeStyle=none;rounded=0;orthogonalLoop=1;jettySize=auto;html=1;exitX=0.5;exitY=0;exitDx=0;exitDy=0;entryX=0;entryY=1;entryDx=0;entryDy=0;endArrow=none;endFill=0;fillColor=#dae8fc;strokeColor=#6c8ebf;fontStyle=1;strokeWidth=2;" parent="wxEZKx46-ez3M-9u-9HB-1" source="Qd4Q2_kLt2G5wtyXQNls-13" target="Qd4Q2_kLt2G5wtyXQNls-14" edge="1">
          <mxGeometry relative="1" as="geometry"/>
        </mxCell>
        <mxCell id="Qd4Q2_kLt2G5wtyXQNls-12" style="edgeStyle=none;rounded=0;orthogonalLoop=1;jettySize=auto;html=1;exitX=0.5;exitY=1;exitDx=0;exitDy=0;entryX=0;entryY=0;entryDx=0;entryDy=0;endArrow=none;endFill=0;fillColor=#dae8fc;strokeColor=#6c8ebf;fontStyle=1;strokeWidth=2;" parent="wxEZKx46-ez3M-9u-9HB-1" source="Qd4Q2_kLt2G5wtyXQNls-13" target="Qd4Q2_kLt2G5wtyXQNls-17" edge="1">
          <mxGeometry relative="1" as="geometry"/>
        </mxCell>
        <mxCell id="Qd4Q2_kLt2G5wtyXQNls-13" value="1" style="ellipse;whiteSpace=wrap;html=1;aspect=fixed;fillColor=#dae8fc;strokeColor=#6c8ebf;fontStyle=1;strokeWidth=2;" parent="wxEZKx46-ez3M-9u-9HB-1" vertex="1">
          <mxGeometry x="145" y="115" width="30" height="30" as="geometry"/>
        </mxCell>
        <mxCell id="Qd4Q2_kLt2G5wtyXQNls-14" value="5" style="ellipse;whiteSpace=wrap;html=1;aspect=fixed;fontStyle=1;strokeWidth=2;" parent="wxEZKx46-ez3M-9u-9HB-1" vertex="1">
          <mxGeometry x="240" y="35" width="30" height="30" as="geometry"/>
        </mxCell>
        <mxCell id="Qd4Q2_kLt2G5wtyXQNls-15" style="edgeStyle=none;rounded=0;orthogonalLoop=1;jettySize=auto;html=1;exitX=1;exitY=0;exitDx=0;exitDy=0;entryX=0;entryY=1;entryDx=0;entryDy=0;endArrow=none;endFill=0;fontStyle=1;strokeWidth=2;" parent="wxEZKx46-ez3M-9u-9HB-1" source="Qd4Q2_kLt2G5wtyXQNls-17" target="Qd4Q2_kLt2G5wtyXQNls-7" edge="1">
          <mxGeometry relative="1" as="geometry"/>
        </mxCell>
        <mxCell id="Qd4Q2_kLt2G5wtyXQNls-16" style="edgeStyle=none;rounded=0;orthogonalLoop=1;jettySize=auto;html=1;exitX=0;exitY=0.5;exitDx=0;exitDy=0;entryX=1;entryY=0.5;entryDx=0;entryDy=0;endArrow=none;endFill=0;fontStyle=1;strokeWidth=2;" parent="wxEZKx46-ez3M-9u-9HB-1" source="Qd4Q2_kLt2G5wtyXQNls-17" target="Qd4Q2_kLt2G5wtyXQNls-4" edge="1">
          <mxGeometry relative="1" as="geometry"/>
        </mxCell>
        <mxCell id="Qd4Q2_kLt2G5wtyXQNls-17" value="6" style="ellipse;whiteSpace=wrap;html=1;aspect=fixed;fontStyle=1;strokeWidth=2;" parent="wxEZKx46-ez3M-9u-9HB-1" vertex="1">
          <mxGeometry x="160" y="210" width="30" height="30" as="geometry"/>
        </mxCell>
        <mxCell id="Qd4Q2_kLt2G5wtyXQNls-18" style="edgeStyle=none;rounded=0;orthogonalLoop=1;jettySize=auto;html=1;exitX=0.5;exitY=1;exitDx=0;exitDy=0;entryX=1;entryY=0;entryDx=0;entryDy=0;endArrow=none;endFill=0;fontStyle=1;strokeWidth=2;" parent="wxEZKx46-ez3M-9u-9HB-1" source="Qd4Q2_kLt2G5wtyXQNls-19" target="Qd4Q2_kLt2G5wtyXQNls-21" edge="1">
          <mxGeometry relative="1" as="geometry"/>
        </mxCell>
        <mxCell id="Qd4Q2_kLt2G5wtyXQNls-19" value="4" style="ellipse;whiteSpace=wrap;html=1;aspect=fixed;fontStyle=1;strokeWidth=2;" parent="wxEZKx46-ez3M-9u-9HB-1" vertex="1">
          <mxGeometry x="330" y="70" width="30" height="30" as="geometry"/>
        </mxCell>
        <mxCell id="Qd4Q2_kLt2G5wtyXQNls-20" style="edgeStyle=none;rounded=0;orthogonalLoop=1;jettySize=auto;html=1;exitX=0;exitY=0.5;exitDx=0;exitDy=0;entryX=1;entryY=0.5;entryDx=0;entryDy=0;endArrow=none;endFill=0;fontStyle=1;strokeWidth=2;" parent="wxEZKx46-ez3M-9u-9HB-1" source="Qd4Q2_kLt2G5wtyXQNls-21" target="Qd4Q2_kLt2G5wtyXQNls-17" edge="1">
          <mxGeometry relative="1" as="geometry"/>
        </mxCell>
        <mxCell id="Qd4Q2_kLt2G5wtyXQNls-21" value="3" style="ellipse;whiteSpace=wrap;html=1;aspect=fixed;fontStyle=1;strokeWidth=2;" parent="wxEZKx46-ez3M-9u-9HB-1" vertex="1">
          <mxGeometry x="290" y="150" width="30" height="30" as="geometry"/>
        </mxCell>
        <mxCell id="Qd4Q2_kLt2G5wtyXQNls-22" value="" style="curved=1;endArrow=classic;html=1;fontSize=14;entryX=1;entryY=0;entryDx=0;entryDy=0;exitX=0.193;exitY=-0.06;exitDx=0;exitDy=0;exitPerimeter=0;fillColor=#ffe6cc;strokeColor=#d79b00;dashed=1;fontStyle=1;strokeWidth=2;" parent="wxEZKx46-ez3M-9u-9HB-1" source="Qd4Q2_kLt2G5wtyXQNls-7" target="Qd4Q2_kLt2G5wtyXQNls-13" edge="1">
          <mxGeometry width="50" height="50" relative="1" as="geometry">
            <mxPoint x="245" y="90" as="sourcePoint"/>
            <mxPoint x="175" y="110" as="targetPoint"/>
            <Array as="points">
              <mxPoint x="205" y="90"/>
            </Array>
          </mxGeometry>
        </mxCell>
        <mxCell id="Qd4Q2_kLt2G5wtyXQNls-24" value="" style="curved=1;endArrow=classic;html=1;fontSize=14;entryX=1;entryY=1;entryDx=0;entryDy=0;fillColor=#ffe6cc;strokeColor=#d79b00;dashed=1;fontStyle=1;strokeWidth=2;" parent="wxEZKx46-ez3M-9u-9HB-1" target="Qd4Q2_kLt2G5wtyXQNls-13" edge="1">
          <mxGeometry width="50" height="50" relative="1" as="geometry">
            <mxPoint x="285" y="160" as="sourcePoint"/>
            <mxPoint x="85" y="260" as="targetPoint"/>
            <Array as="points">
              <mxPoint x="235" y="160"/>
              <mxPoint x="195" y="150"/>
            </Array>
          </mxGeometry>
        </mxCell>
        <mxCell id="Qd4Q2_kLt2G5wtyXQNls-25" value="" style="curved=1;endArrow=classic;html=1;dashed=1;fontSize=14;fillColor=#ffe6cc;strokeColor=#d79b00;fontStyle=1;strokeWidth=2;" parent="wxEZKx46-ez3M-9u-9HB-1" edge="1">
          <mxGeometry width="50" height="50" relative="1" as="geometry">
            <mxPoint x="164" y="214" as="sourcePoint"/>
            <mxPoint x="155" y="150" as="targetPoint"/>
            <Array as="points">
              <mxPoint x="145" y="170"/>
            </Array>
          </mxGeometry>
        </mxCell>
        <mxCell id="Qd4Q2_kLt2G5wtyXQNls-28" value="" style="rounded=0;whiteSpace=wrap;html=1;strokeWidth=2;fontSize=14;fontStyle=1" parent="wxEZKx46-ez3M-9u-9HB-1" vertex="1">
          <mxGeometry x="476" y="53" width="10" height="10" as="geometry"/>
        </mxCell>
        <mxCell id="Qd4Q2_kLt2G5wtyXQNls-30" value="" style="rounded=0;whiteSpace=wrap;html=1;strokeWidth=2;fontSize=14;fontStyle=1" parent="wxEZKx46-ez3M-9u-9HB-1" vertex="1">
          <mxGeometry x="486" y="53" width="10" height="10" as="geometry"/>
        </mxCell>
        <mxCell id="Qd4Q2_kLt2G5wtyXQNls-31" value="" style="rounded=0;whiteSpace=wrap;html=1;strokeWidth=2;fontSize=14;fontStyle=1" parent="wxEZKx46-ez3M-9u-9HB-1" vertex="1">
          <mxGeometry x="496" y="53" width="10" height="10" as="geometry"/>
        </mxCell>
        <mxCell id="Qd4Q2_kLt2G5wtyXQNls-32" value="" style="rounded=0;whiteSpace=wrap;html=1;strokeWidth=2;fontSize=14;fontStyle=1" parent="wxEZKx46-ez3M-9u-9HB-1" vertex="1">
          <mxGeometry x="506" y="53" width="10" height="10" as="geometry"/>
        </mxCell>
        <mxCell id="Qd4Q2_kLt2G5wtyXQNls-33" value="" style="rounded=0;whiteSpace=wrap;html=1;strokeWidth=2;fontSize=14;fontStyle=1" parent="wxEZKx46-ez3M-9u-9HB-1" vertex="1">
          <mxGeometry x="516" y="53" width="10" height="10" as="geometry"/>
        </mxCell>
        <mxCell id="Qd4Q2_kLt2G5wtyXQNls-34" value="X" style="text;html=1;strokeColor=none;fillColor=none;align=center;verticalAlign=middle;whiteSpace=wrap;rounded=0;fontSize=14;fontStyle=1;strokeWidth=2;" parent="wxEZKx46-ez3M-9u-9HB-1" vertex="1">
          <mxGeometry x="480" y="33" width="40" height="20" as="geometry"/>
        </mxCell>
        <mxCell id="Qd4Q2_kLt2G5wtyXQNls-35" value="f" style="rounded=0;whiteSpace=wrap;html=1;strokeWidth=2;fontSize=14;fontStyle=1" parent="wxEZKx46-ez3M-9u-9HB-1" vertex="1">
          <mxGeometry x="466" y="110" width="70" height="55" as="geometry"/>
        </mxCell>
        <mxCell id="Qd4Q2_kLt2G5wtyXQNls-37" value="" style="endArrow=classic;html=1;dashed=1;fontSize=14;entryX=0.5;entryY=0;entryDx=0;entryDy=0;fontStyle=1;strokeWidth=2;" parent="wxEZKx46-ez3M-9u-9HB-1" target="Qd4Q2_kLt2G5wtyXQNls-35" edge="1">
          <mxGeometry width="50" height="50" relative="1" as="geometry">
            <mxPoint x="501" y="68" as="sourcePoint"/>
            <mxPoint x="501" y="98" as="targetPoint"/>
          </mxGeometry>
        </mxCell>
        <mxCell id="Qd4Q2_kLt2G5wtyXQNls-38" value="X" style="text;html=1;strokeColor=none;fillColor=none;align=center;verticalAlign=middle;whiteSpace=wrap;rounded=0;fontSize=14;fontStyle=1;strokeWidth=2;" parent="wxEZKx46-ez3M-9u-9HB-1" vertex="1">
          <mxGeometry x="420" y="130" width="40" height="20" as="geometry"/>
        </mxCell>
        <mxCell id="Qd4Q2_kLt2G5wtyXQNls-40" value="" style="endArrow=classic;html=1;fontSize=14;entryX=0.5;entryY=0;entryDx=0;entryDy=0;fillColor=#f5f5f5;strokeColor=#666666;endFill=1;dashed=1;fontStyle=1;strokeWidth=2;" parent="wxEZKx46-ez3M-9u-9HB-1" target="Qd4Q2_kLt2G5wtyXQNls-38" edge="1">
          <mxGeometry width="50" height="50" relative="1" as="geometry">
            <mxPoint x="360" y="20" as="sourcePoint"/>
            <mxPoint x="410" y="20" as="targetPoint"/>
          </mxGeometry>
        </mxCell>
        <mxCell id="Qd4Q2_kLt2G5wtyXQNls-41" value="" style="endArrow=classic;html=1;fontSize=14;entryX=0.5;entryY=1;entryDx=0;entryDy=0;fillColor=#f5f5f5;strokeColor=#666666;endFill=1;dashed=1;fontStyle=1;strokeWidth=2;" parent="wxEZKx46-ez3M-9u-9HB-1" target="Qd4Q2_kLt2G5wtyXQNls-38" edge="1">
          <mxGeometry width="50" height="50" relative="1" as="geometry">
            <mxPoint x="360" y="260" as="sourcePoint"/>
            <mxPoint x="436" y="230" as="targetPoint"/>
          </mxGeometry>
        </mxCell>
        <mxCell id="Qd4Q2_kLt2G5wtyXQNls-42" value="" style="endArrow=none;html=1;fontSize=14;fillColor=#f5f5f5;strokeColor=#666666;fontStyle=1;strokeWidth=2;" parent="wxEZKx46-ez3M-9u-9HB-1" edge="1">
          <mxGeometry width="50" height="50" relative="1" as="geometry">
            <mxPoint x="20" y="20" as="sourcePoint"/>
            <mxPoint x="360" y="20" as="targetPoint"/>
          </mxGeometry>
        </mxCell>
        <mxCell id="Qd4Q2_kLt2G5wtyXQNls-43" value="" style="endArrow=none;html=1;fontSize=14;fillColor=#f5f5f5;strokeColor=#666666;fontStyle=1;strokeWidth=2;" parent="wxEZKx46-ez3M-9u-9HB-1" edge="1">
          <mxGeometry width="50" height="50" relative="1" as="geometry">
            <mxPoint x="20" y="260" as="sourcePoint"/>
            <mxPoint x="360" y="260" as="targetPoint"/>
          </mxGeometry>
        </mxCell>
        <mxCell id="Qd4Q2_kLt2G5wtyXQNls-44" value="" style="endArrow=none;html=1;fontSize=14;fillColor=#f5f5f5;strokeColor=#666666;fontStyle=1;strokeWidth=2;" parent="wxEZKx46-ez3M-9u-9HB-1" edge="1">
          <mxGeometry width="50" height="50" relative="1" as="geometry">
            <mxPoint x="20" y="260" as="sourcePoint"/>
            <mxPoint x="20" y="20" as="targetPoint"/>
          </mxGeometry>
        </mxCell>
        <mxCell id="Qd4Q2_kLt2G5wtyXQNls-45" value="" style="endArrow=classic;html=1;dashed=1;fontSize=14;entryX=0.5;entryY=0;entryDx=0;entryDy=0;fontStyle=1;strokeWidth=2;" parent="wxEZKx46-ez3M-9u-9HB-1" edge="1">
          <mxGeometry width="50" height="50" relative="1" as="geometry">
            <mxPoint x="500.5" y="170" as="sourcePoint"/>
            <mxPoint x="500.5" y="212" as="targetPoint"/>
          </mxGeometry>
        </mxCell>
        <mxCell id="Qd4Q2_kLt2G5wtyXQNls-46" value="h=f(x)" style="text;html=1;strokeColor=none;fillColor=none;align=center;verticalAlign=middle;whiteSpace=wrap;rounded=0;fontSize=14;fontStyle=1;strokeWidth=2;" parent="wxEZKx46-ez3M-9u-9HB-1" vertex="1">
          <mxGeometry x="485" y="218" width="40" height="20" as="geometry"/>
        </mxCell>
        <mxCell id="Qd4Q2_kLt2G5wtyXQNls-47" value="" style="rounded=0;whiteSpace=wrap;html=1;strokeWidth=2;fontSize=14;fontStyle=1" parent="wxEZKx46-ez3M-9u-9HB-1" vertex="1">
          <mxGeometry x="488" y="241" width="10" height="10" as="geometry"/>
        </mxCell>
        <mxCell id="Qd4Q2_kLt2G5wtyXQNls-48" value="" style="rounded=0;whiteSpace=wrap;html=1;strokeWidth=2;fontSize=14;fontStyle=1" parent="wxEZKx46-ez3M-9u-9HB-1" vertex="1">
          <mxGeometry x="498" y="241" width="10" height="10" as="geometry"/>
        </mxCell>
        <mxCell id="Qd4Q2_kLt2G5wtyXQNls-49" value="" style="rounded=0;whiteSpace=wrap;html=1;strokeWidth=2;fontSize=14;fontStyle=1" parent="wxEZKx46-ez3M-9u-9HB-1" vertex="1">
          <mxGeometry x="508" y="241" width="10" height="10" as="geometry"/>
        </mxCell>
        <mxCell id="Qd4Q2_kLt2G5wtyXQNls-53" value="" style="ellipse;whiteSpace=wrap;html=1;aspect=fixed;fontStyle=1;strokeWidth=2;" parent="wxEZKx46-ez3M-9u-9HB-1" vertex="1">
          <mxGeometry x="726" y="48" width="30" height="30" as="geometry"/>
        </mxCell>
        <mxCell id="Qd4Q2_kLt2G5wtyXQNls-54" style="edgeStyle=none;rounded=0;orthogonalLoop=1;jettySize=auto;html=1;exitX=0;exitY=1;exitDx=0;exitDy=0;entryX=0.5;entryY=0;entryDx=0;entryDy=0;endArrow=none;endFill=0;fontStyle=1;strokeWidth=2;" parent="wxEZKx46-ez3M-9u-9HB-1" source="Qd4Q2_kLt2G5wtyXQNls-56" target="Qd4Q2_kLt2G5wtyXQNls-57" edge="1">
          <mxGeometry relative="1" as="geometry"/>
        </mxCell>
        <mxCell id="Qd4Q2_kLt2G5wtyXQNls-55" style="edgeStyle=none;rounded=0;orthogonalLoop=1;jettySize=auto;html=1;exitX=1;exitY=1;exitDx=0;exitDy=0;entryX=0;entryY=0.5;entryDx=0;entryDy=0;endArrow=none;endFill=0;fontStyle=1;strokeWidth=2;" parent="wxEZKx46-ez3M-9u-9HB-1" source="Qd4Q2_kLt2G5wtyXQNls-56" target="Qd4Q2_kLt2G5wtyXQNls-67" edge="1">
          <mxGeometry relative="1" as="geometry"/>
        </mxCell>
        <mxCell id="Qd4Q2_kLt2G5wtyXQNls-56" value="7" style="ellipse;whiteSpace=wrap;html=1;aspect=fixed;fontStyle=1;strokeWidth=2;" parent="wxEZKx46-ez3M-9u-9HB-1" vertex="1">
          <mxGeometry x="726" y="48" width="30" height="30" as="geometry"/>
        </mxCell>
        <mxCell id="Qd4Q2_kLt2G5wtyXQNls-57" value="8" style="ellipse;whiteSpace=wrap;html=1;aspect=fixed;fontStyle=1;strokeWidth=2;" parent="wxEZKx46-ez3M-9u-9HB-1" vertex="1">
          <mxGeometry x="661" y="98" width="30" height="30" as="geometry"/>
        </mxCell>
        <mxCell id="Qd4Q2_kLt2G5wtyXQNls-58" style="edgeStyle=none;rounded=0;orthogonalLoop=1;jettySize=auto;html=1;exitX=1;exitY=0;exitDx=0;exitDy=0;entryX=0;entryY=0.5;entryDx=0;entryDy=0;endArrow=none;endFill=0;fontStyle=1;strokeWidth=2;" parent="wxEZKx46-ez3M-9u-9HB-1" source="Qd4Q2_kLt2G5wtyXQNls-60" target="Qd4Q2_kLt2G5wtyXQNls-72" edge="1">
          <mxGeometry relative="1" as="geometry"/>
        </mxCell>
        <mxCell id="Qd4Q2_kLt2G5wtyXQNls-59" style="edgeStyle=none;rounded=0;orthogonalLoop=1;jettySize=auto;html=1;exitX=1;exitY=1;exitDx=0;exitDy=0;entryX=0;entryY=0;entryDx=0;entryDy=0;endArrow=none;endFill=0;fontStyle=1;strokeWidth=2;" parent="wxEZKx46-ez3M-9u-9HB-1" source="Qd4Q2_kLt2G5wtyXQNls-60" target="Qd4Q2_kLt2G5wtyXQNls-74" edge="1">
          <mxGeometry relative="1" as="geometry"/>
        </mxCell>
        <mxCell id="Qd4Q2_kLt2G5wtyXQNls-60" value="2" style="ellipse;whiteSpace=wrap;html=1;aspect=fixed;fontStyle=1;strokeWidth=2;" parent="wxEZKx46-ez3M-9u-9HB-1" vertex="1">
          <mxGeometry x="871" y="98" width="30" height="30" as="geometry"/>
        </mxCell>
        <mxCell id="Qd4Q2_kLt2G5wtyXQNls-61" style="edgeStyle=none;rounded=0;orthogonalLoop=1;jettySize=auto;html=1;exitX=0;exitY=0;exitDx=0;exitDy=0;entryX=0.5;entryY=1;entryDx=0;entryDy=0;endArrow=none;endFill=0;fontStyle=1;strokeWidth=2;" parent="wxEZKx46-ez3M-9u-9HB-1" source="Qd4Q2_kLt2G5wtyXQNls-62" target="Qd4Q2_kLt2G5wtyXQNls-57" edge="1">
          <mxGeometry relative="1" as="geometry"/>
        </mxCell>
        <mxCell id="Qd4Q2_kLt2G5wtyXQNls-62" value="9" style="ellipse;whiteSpace=wrap;html=1;aspect=fixed;fontStyle=1;strokeWidth=2;" parent="wxEZKx46-ez3M-9u-9HB-1" vertex="1">
          <mxGeometry x="706" y="188" width="30" height="30" as="geometry"/>
        </mxCell>
        <mxCell id="Qd4Q2_kLt2G5wtyXQNls-63" style="rounded=0;orthogonalLoop=1;jettySize=auto;html=1;entryX=0;entryY=0.5;entryDx=0;entryDy=0;endArrow=none;endFill=0;fillColor=#dae8fc;strokeColor=#6c8ebf;fontStyle=1;strokeWidth=2;" parent="wxEZKx46-ez3M-9u-9HB-1" source="Qd4Q2_kLt2G5wtyXQNls-66" target="Qd4Q2_kLt2G5wtyXQNls-60" edge="1">
          <mxGeometry relative="1" as="geometry"/>
        </mxCell>
        <mxCell id="Qd4Q2_kLt2G5wtyXQNls-64" style="edgeStyle=none;rounded=0;orthogonalLoop=1;jettySize=auto;html=1;exitX=0.5;exitY=0;exitDx=0;exitDy=0;entryX=0;entryY=1;entryDx=0;entryDy=0;endArrow=none;endFill=0;fillColor=#dae8fc;strokeColor=#6c8ebf;fontStyle=1;strokeWidth=2;" parent="wxEZKx46-ez3M-9u-9HB-1" source="Qd4Q2_kLt2G5wtyXQNls-66" target="Qd4Q2_kLt2G5wtyXQNls-67" edge="1">
          <mxGeometry relative="1" as="geometry"/>
        </mxCell>
        <mxCell id="Qd4Q2_kLt2G5wtyXQNls-65" style="edgeStyle=none;rounded=0;orthogonalLoop=1;jettySize=auto;html=1;exitX=0.5;exitY=1;exitDx=0;exitDy=0;entryX=0;entryY=0;entryDx=0;entryDy=0;endArrow=none;endFill=0;fillColor=#dae8fc;strokeColor=#6c8ebf;fontStyle=1;strokeWidth=2;" parent="wxEZKx46-ez3M-9u-9HB-1" source="Qd4Q2_kLt2G5wtyXQNls-66" target="Qd4Q2_kLt2G5wtyXQNls-70" edge="1">
          <mxGeometry relative="1" as="geometry"/>
        </mxCell>
        <mxCell id="Qd4Q2_kLt2G5wtyXQNls-66" value="1" style="ellipse;whiteSpace=wrap;html=1;aspect=fixed;fillColor=#dae8fc;strokeColor=#6c8ebf;fontStyle=1;strokeWidth=2;" parent="wxEZKx46-ez3M-9u-9HB-1" vertex="1">
          <mxGeometry x="776" y="113" width="30" height="30" as="geometry"/>
        </mxCell>
        <mxCell id="Qd4Q2_kLt2G5wtyXQNls-67" value="5" style="ellipse;whiteSpace=wrap;html=1;aspect=fixed;fontStyle=1;strokeWidth=2;" parent="wxEZKx46-ez3M-9u-9HB-1" vertex="1">
          <mxGeometry x="871" y="33" width="30" height="30" as="geometry"/>
        </mxCell>
        <mxCell id="Qd4Q2_kLt2G5wtyXQNls-68" style="edgeStyle=none;rounded=0;orthogonalLoop=1;jettySize=auto;html=1;exitX=1;exitY=0;exitDx=0;exitDy=0;entryX=0;entryY=1;entryDx=0;entryDy=0;endArrow=none;endFill=0;fontStyle=1;strokeWidth=2;" parent="wxEZKx46-ez3M-9u-9HB-1" source="Qd4Q2_kLt2G5wtyXQNls-70" target="Qd4Q2_kLt2G5wtyXQNls-60" edge="1">
          <mxGeometry relative="1" as="geometry"/>
        </mxCell>
        <mxCell id="Qd4Q2_kLt2G5wtyXQNls-69" style="edgeStyle=none;rounded=0;orthogonalLoop=1;jettySize=auto;html=1;exitX=0;exitY=0.5;exitDx=0;exitDy=0;entryX=1;entryY=0.5;entryDx=0;entryDy=0;endArrow=none;endFill=0;fontStyle=1;strokeWidth=2;" parent="wxEZKx46-ez3M-9u-9HB-1" source="Qd4Q2_kLt2G5wtyXQNls-70" target="Qd4Q2_kLt2G5wtyXQNls-57" edge="1">
          <mxGeometry relative="1" as="geometry"/>
        </mxCell>
        <mxCell id="Qd4Q2_kLt2G5wtyXQNls-70" value="6" style="ellipse;whiteSpace=wrap;html=1;aspect=fixed;fontStyle=1;strokeWidth=2;" parent="wxEZKx46-ez3M-9u-9HB-1" vertex="1">
          <mxGeometry x="791" y="208" width="30" height="30" as="geometry"/>
        </mxCell>
        <mxCell id="Qd4Q2_kLt2G5wtyXQNls-71" style="edgeStyle=none;rounded=0;orthogonalLoop=1;jettySize=auto;html=1;exitX=0.5;exitY=1;exitDx=0;exitDy=0;entryX=1;entryY=0;entryDx=0;entryDy=0;endArrow=none;endFill=0;fontStyle=1;strokeWidth=2;" parent="wxEZKx46-ez3M-9u-9HB-1" source="Qd4Q2_kLt2G5wtyXQNls-72" target="Qd4Q2_kLt2G5wtyXQNls-74" edge="1">
          <mxGeometry relative="1" as="geometry"/>
        </mxCell>
        <mxCell id="Qd4Q2_kLt2G5wtyXQNls-72" value="4" style="ellipse;whiteSpace=wrap;html=1;aspect=fixed;fontStyle=1;strokeWidth=2;" parent="wxEZKx46-ez3M-9u-9HB-1" vertex="1">
          <mxGeometry x="961" y="68" width="30" height="30" as="geometry"/>
        </mxCell>
        <mxCell id="Qd4Q2_kLt2G5wtyXQNls-73" style="edgeStyle=none;rounded=0;orthogonalLoop=1;jettySize=auto;html=1;exitX=0;exitY=0.5;exitDx=0;exitDy=0;entryX=1;entryY=0.5;entryDx=0;entryDy=0;endArrow=none;endFill=0;fontStyle=1;strokeWidth=2;" parent="wxEZKx46-ez3M-9u-9HB-1" source="Qd4Q2_kLt2G5wtyXQNls-74" target="Qd4Q2_kLt2G5wtyXQNls-70" edge="1">
          <mxGeometry relative="1" as="geometry"/>
        </mxCell>
        <mxCell id="Qd4Q2_kLt2G5wtyXQNls-74" value="3" style="ellipse;whiteSpace=wrap;html=1;aspect=fixed;fontStyle=1;strokeWidth=2;" parent="wxEZKx46-ez3M-9u-9HB-1" vertex="1">
          <mxGeometry x="921" y="148" width="30" height="30" as="geometry"/>
        </mxCell>
        <mxCell id="Qd4Q2_kLt2G5wtyXQNls-75" value="" style="curved=1;endArrow=classic;html=1;fontSize=14;entryX=1;entryY=0;entryDx=0;entryDy=0;exitX=0.193;exitY=-0.06;exitDx=0;exitDy=0;exitPerimeter=0;fillColor=#ffe6cc;strokeColor=#d79b00;dashed=1;fontStyle=1;strokeWidth=2;" parent="wxEZKx46-ez3M-9u-9HB-1" source="Qd4Q2_kLt2G5wtyXQNls-60" target="Qd4Q2_kLt2G5wtyXQNls-66" edge="1">
          <mxGeometry width="50" height="50" relative="1" as="geometry">
            <mxPoint x="876" y="88" as="sourcePoint"/>
            <mxPoint x="806" y="108" as="targetPoint"/>
            <Array as="points">
              <mxPoint x="836" y="88"/>
            </Array>
          </mxGeometry>
        </mxCell>
        <mxCell id="Qd4Q2_kLt2G5wtyXQNls-76" value="" style="curved=1;endArrow=classic;html=1;fontSize=14;entryX=1;entryY=1;entryDx=0;entryDy=0;fillColor=#ffe6cc;strokeColor=#d79b00;dashed=1;fontStyle=1;strokeWidth=2;" parent="wxEZKx46-ez3M-9u-9HB-1" target="Qd4Q2_kLt2G5wtyXQNls-66" edge="1">
          <mxGeometry width="50" height="50" relative="1" as="geometry">
            <mxPoint x="916" y="158" as="sourcePoint"/>
            <mxPoint x="716" y="258" as="targetPoint"/>
            <Array as="points">
              <mxPoint x="866" y="158"/>
              <mxPoint x="826" y="148"/>
            </Array>
          </mxGeometry>
        </mxCell>
        <mxCell id="Qd4Q2_kLt2G5wtyXQNls-77" value="" style="curved=1;endArrow=classic;html=1;dashed=1;fontSize=14;fillColor=#ffe6cc;strokeColor=#d79b00;fontStyle=1;strokeWidth=2;" parent="wxEZKx46-ez3M-9u-9HB-1" edge="1">
          <mxGeometry width="50" height="50" relative="1" as="geometry">
            <mxPoint x="795" y="212" as="sourcePoint"/>
            <mxPoint x="786" y="148" as="targetPoint"/>
            <Array as="points">
              <mxPoint x="776" y="168"/>
            </Array>
          </mxGeometry>
        </mxCell>
        <mxCell id="Qd4Q2_kLt2G5wtyXQNls-78" value="" style="endArrow=none;html=1;fontSize=14;fillColor=#f5f5f5;strokeColor=#666666;fontStyle=1;strokeWidth=2;" parent="wxEZKx46-ez3M-9u-9HB-1" edge="1">
          <mxGeometry width="50" height="50" relative="1" as="geometry">
            <mxPoint x="651" y="18" as="sourcePoint"/>
            <mxPoint x="1001" y="18.5" as="targetPoint"/>
          </mxGeometry>
        </mxCell>
        <mxCell id="Qd4Q2_kLt2G5wtyXQNls-79" value="" style="endArrow=none;html=1;fontSize=14;fillColor=#f5f5f5;strokeColor=#666666;fontStyle=1;strokeWidth=2;" parent="wxEZKx46-ez3M-9u-9HB-1" edge="1">
          <mxGeometry width="50" height="50" relative="1" as="geometry">
            <mxPoint x="651" y="258" as="sourcePoint"/>
            <mxPoint x="1001" y="258.5" as="targetPoint"/>
          </mxGeometry>
        </mxCell>
        <mxCell id="Qd4Q2_kLt2G5wtyXQNls-80" value="" style="endArrow=none;html=1;fontSize=14;fillColor=#f5f5f5;strokeColor=#666666;fontStyle=1;strokeWidth=2;" parent="wxEZKx46-ez3M-9u-9HB-1" edge="1">
          <mxGeometry width="50" height="50" relative="1" as="geometry">
            <mxPoint x="1001" y="258" as="sourcePoint"/>
            <mxPoint x="1001" y="18" as="targetPoint"/>
          </mxGeometry>
        </mxCell>
        <mxCell id="Qd4Q2_kLt2G5wtyXQNls-81" value="" style="endArrow=none;html=1;fontSize=14;fillColor=#f5f5f5;strokeColor=#666666;fontStyle=1;strokeWidth=2;" parent="wxEZKx46-ez3M-9u-9HB-1" edge="1">
          <mxGeometry width="50" height="50" relative="1" as="geometry">
            <mxPoint x="359.5" y="258.5" as="sourcePoint"/>
            <mxPoint x="359.5" y="18.5" as="targetPoint"/>
          </mxGeometry>
        </mxCell>
        <mxCell id="Qd4Q2_kLt2G5wtyXQNls-83" value="" style="endArrow=none;html=1;fontSize=14;fillColor=#f5f5f5;strokeColor=#666666;fontStyle=1;strokeWidth=2;" parent="wxEZKx46-ez3M-9u-9HB-1" edge="1">
          <mxGeometry width="50" height="50" relative="1" as="geometry">
            <mxPoint x="570" y="258.5" as="sourcePoint"/>
            <mxPoint x="570" y="19" as="targetPoint"/>
          </mxGeometry>
        </mxCell>
        <mxCell id="Qd4Q2_kLt2G5wtyXQNls-84" value="" style="endArrow=none;html=1;fontSize=14;fillColor=#f5f5f5;strokeColor=#666666;exitX=0.5;exitY=0;exitDx=0;exitDy=0;fontStyle=1;strokeWidth=2;" parent="wxEZKx46-ez3M-9u-9HB-1" source="Qd4Q2_kLt2G5wtyXQNls-38" edge="1">
          <mxGeometry width="50" height="50" relative="1" as="geometry">
            <mxPoint x="440" y="120" as="sourcePoint"/>
            <mxPoint x="440" y="18" as="targetPoint"/>
          </mxGeometry>
        </mxCell>
        <mxCell id="Qd4Q2_kLt2G5wtyXQNls-85" value="" style="endArrow=none;html=1;fontSize=14;fillColor=#f5f5f5;strokeColor=#666666;fontStyle=1;strokeWidth=2;" parent="wxEZKx46-ez3M-9u-9HB-1" edge="1">
          <mxGeometry width="50" height="50" relative="1" as="geometry">
            <mxPoint x="440" y="259" as="sourcePoint"/>
            <mxPoint x="440" y="151" as="targetPoint"/>
          </mxGeometry>
        </mxCell>
        <mxCell id="Qd4Q2_kLt2G5wtyXQNls-86" value="" style="endArrow=none;html=1;fontSize=14;fillColor=#f5f5f5;strokeColor=#666666;fontStyle=1;strokeWidth=2;" parent="wxEZKx46-ez3M-9u-9HB-1" edge="1">
          <mxGeometry width="50" height="50" relative="1" as="geometry">
            <mxPoint x="440" y="260.0000000000001" as="sourcePoint"/>
            <mxPoint x="570" y="260" as="targetPoint"/>
          </mxGeometry>
        </mxCell>
        <mxCell id="Qd4Q2_kLt2G5wtyXQNls-89" value="" style="endArrow=none;html=1;fontSize=14;fillColor=#f5f5f5;strokeColor=#666666;fontStyle=1;strokeWidth=2;" parent="wxEZKx46-ez3M-9u-9HB-1" edge="1">
          <mxGeometry width="50" height="50" relative="1" as="geometry">
            <mxPoint x="440" y="19.000000000000227" as="sourcePoint"/>
            <mxPoint x="570" y="19" as="targetPoint"/>
          </mxGeometry>
        </mxCell>
        <mxCell id="Qd4Q2_kLt2G5wtyXQNls-100" value="h" style="text;html=1;strokeColor=none;fillColor=none;align=center;verticalAlign=middle;whiteSpace=wrap;rounded=0;fontSize=14;fontStyle=1;strokeWidth=2;" parent="wxEZKx46-ez3M-9u-9HB-1" vertex="1">
          <mxGeometry x="631" y="130" width="40" height="20" as="geometry"/>
        </mxCell>
        <mxCell id="Qd4Q2_kLt2G5wtyXQNls-101" value="" style="endArrow=classic;html=1;fontSize=14;entryX=0.5;entryY=0;entryDx=0;entryDy=0;fillColor=#f5f5f5;strokeColor=#666666;endFill=1;dashed=1;fontStyle=1;strokeWidth=2;" parent="wxEZKx46-ez3M-9u-9HB-1" target="Qd4Q2_kLt2G5wtyXQNls-100" edge="1">
          <mxGeometry width="50" height="50" relative="1" as="geometry">
            <mxPoint x="571" y="20" as="sourcePoint"/>
            <mxPoint x="621" y="20" as="targetPoint"/>
          </mxGeometry>
        </mxCell>
        <mxCell id="Qd4Q2_kLt2G5wtyXQNls-102" value="" style="endArrow=classic;html=1;fontSize=14;entryX=0.5;entryY=1;entryDx=0;entryDy=0;fillColor=#f5f5f5;strokeColor=#666666;dashed=1;endFill=1;fontStyle=1;strokeWidth=2;" parent="wxEZKx46-ez3M-9u-9HB-1" target="Qd4Q2_kLt2G5wtyXQNls-100" edge="1">
          <mxGeometry width="50" height="50" relative="1" as="geometry">
            <mxPoint x="571" y="260" as="sourcePoint"/>
            <mxPoint x="647" y="230" as="targetPoint"/>
          </mxGeometry>
        </mxCell>
        <mxCell id="Qd4Q2_kLt2G5wtyXQNls-103" value="" style="endArrow=none;html=1;fontSize=14;fillColor=#f5f5f5;strokeColor=#666666;exitX=0.5;exitY=0;exitDx=0;exitDy=0;fontStyle=1;strokeWidth=2;" parent="wxEZKx46-ez3M-9u-9HB-1" source="Qd4Q2_kLt2G5wtyXQNls-100" edge="1">
          <mxGeometry width="50" height="50" relative="1" as="geometry">
            <mxPoint x="651" y="120" as="sourcePoint"/>
            <mxPoint x="651" y="18" as="targetPoint"/>
          </mxGeometry>
        </mxCell>
        <mxCell id="Qd4Q2_kLt2G5wtyXQNls-104" value="" style="endArrow=none;html=1;fontSize=14;fillColor=#f5f5f5;strokeColor=#666666;fontStyle=1;strokeWidth=2;" parent="wxEZKx46-ez3M-9u-9HB-1" edge="1">
          <mxGeometry width="50" height="50" relative="1" as="geometry">
            <mxPoint x="651" y="259" as="sourcePoint"/>
            <mxPoint x="651" y="151" as="targetPoint"/>
          </mxGeometry>
        </mxCell>
      </root>
    </mxGraphModel>
  </diagram>
  <diagram id="WkBIWzei-8XzM_kXLhI6" name="第 3 页">
    <mxGraphModel dx="1180" dy="713" grid="1" gridSize="10" guides="1" tooltips="1" connect="1" arrows="1" fold="1" page="1" pageScale="1" pageWidth="827" pageHeight="1169" math="0" shadow="0">
      <root>
        <mxCell id="vtlgAywxxKTXz_kTH_dY-0"/>
        <mxCell id="vtlgAywxxKTXz_kTH_dY-1" parent="vtlgAywxxKTXz_kTH_dY-0"/>
        <mxCell id="rlwAqJl2fLDkXMFUihCK-0" value="" style="ellipse;whiteSpace=wrap;html=1;aspect=fixed;fillColor=#dae8fc;strokeColor=#6c8ebf;" vertex="1" parent="vtlgAywxxKTXz_kTH_dY-1">
          <mxGeometry x="30" y="155" width="30" height="30" as="geometry"/>
        </mxCell>
        <mxCell id="rlwAqJl2fLDkXMFUihCK-1" value="" style="ellipse;whiteSpace=wrap;html=1;aspect=fixed;fillColor=#dae8fc;strokeColor=#6c8ebf;" vertex="1" parent="vtlgAywxxKTXz_kTH_dY-1">
          <mxGeometry x="110" y="70" width="30" height="30" as="geometry"/>
        </mxCell>
        <mxCell id="rlwAqJl2fLDkXMFUihCK-2" value="" style="ellipse;whiteSpace=wrap;html=1;aspect=fixed;fillColor=#dae8fc;strokeColor=#6c8ebf;" vertex="1" parent="vtlgAywxxKTXz_kTH_dY-1">
          <mxGeometry x="260" y="85" width="30" height="30" as="geometry"/>
        </mxCell>
        <mxCell id="rlwAqJl2fLDkXMFUihCK-3" value="" style="ellipse;whiteSpace=wrap;html=1;aspect=fixed;fillColor=#dae8fc;strokeColor=#6c8ebf;" vertex="1" parent="vtlgAywxxKTXz_kTH_dY-1">
          <mxGeometry x="290" y="170" width="30" height="30" as="geometry"/>
        </mxCell>
        <mxCell id="rlwAqJl2fLDkXMFUihCK-4" value="" style="ellipse;whiteSpace=wrap;html=1;aspect=fixed;fillColor=#dae8fc;strokeColor=#6c8ebf;" vertex="1" parent="vtlgAywxxKTXz_kTH_dY-1">
          <mxGeometry x="150" y="235" width="30" height="30" as="geometry"/>
        </mxCell>
        <mxCell id="rlwAqJl2fLDkXMFUihCK-7" value="" style="shape=flexArrow;endArrow=classic;html=1;" edge="1" parent="vtlgAywxxKTXz_kTH_dY-1">
          <mxGeometry width="50" height="50" relative="1" as="geometry">
            <mxPoint x="360" y="170" as="sourcePoint"/>
            <mxPoint x="440" y="170" as="targetPoint"/>
          </mxGeometry>
        </mxCell>
        <mxCell id="rlwAqJl2fLDkXMFUihCK-21" style="rounded=0;orthogonalLoop=1;jettySize=auto;html=1;entryX=0;entryY=0.5;entryDx=0;entryDy=0;endArrow=none;endFill=0;fillColor=#dae8fc;strokeColor=#6c8ebf;" edge="1" parent="vtlgAywxxKTXz_kTH_dY-1" source="rlwAqJl2fLDkXMFUihCK-8" target="rlwAqJl2fLDkXMFUihCK-18">
          <mxGeometry relative="1" as="geometry"/>
        </mxCell>
        <mxCell id="rlwAqJl2fLDkXMFUihCK-8" value="" style="ellipse;whiteSpace=wrap;html=1;aspect=fixed;fillColor=#dae8fc;strokeColor=#6c8ebf;" vertex="1" parent="vtlgAywxxKTXz_kTH_dY-1">
          <mxGeometry x="470" y="157.5" width="30" height="30" as="geometry"/>
        </mxCell>
        <mxCell id="rlwAqJl2fLDkXMFUihCK-24" style="edgeStyle=none;rounded=0;orthogonalLoop=1;jettySize=auto;html=1;endArrow=none;endFill=0;fillColor=#dae8fc;strokeColor=#6c8ebf;" edge="1" parent="vtlgAywxxKTXz_kTH_dY-1" source="rlwAqJl2fLDkXMFUihCK-9">
          <mxGeometry relative="1" as="geometry">
            <mxPoint x="620" y="118" as="targetPoint"/>
          </mxGeometry>
        </mxCell>
        <mxCell id="rlwAqJl2fLDkXMFUihCK-9" value="" style="ellipse;whiteSpace=wrap;html=1;aspect=fixed;fillColor=#dae8fc;strokeColor=#6c8ebf;" vertex="1" parent="vtlgAywxxKTXz_kTH_dY-1">
          <mxGeometry x="550" y="72.5" width="30" height="30" as="geometry"/>
        </mxCell>
        <mxCell id="rlwAqJl2fLDkXMFUihCK-25" style="edgeStyle=none;rounded=0;orthogonalLoop=1;jettySize=auto;html=1;entryX=1;entryY=0.5;entryDx=0;entryDy=0;endArrow=none;endFill=0;fillColor=#dae8fc;strokeColor=#6c8ebf;" edge="1" parent="vtlgAywxxKTXz_kTH_dY-1" source="rlwAqJl2fLDkXMFUihCK-10" target="rlwAqJl2fLDkXMFUihCK-19">
          <mxGeometry relative="1" as="geometry"/>
        </mxCell>
        <mxCell id="rlwAqJl2fLDkXMFUihCK-10" value="" style="ellipse;whiteSpace=wrap;html=1;aspect=fixed;fillColor=#dae8fc;strokeColor=#6c8ebf;" vertex="1" parent="vtlgAywxxKTXz_kTH_dY-1">
          <mxGeometry x="700" y="87.5" width="30" height="30" as="geometry"/>
        </mxCell>
        <mxCell id="rlwAqJl2fLDkXMFUihCK-27" style="edgeStyle=none;rounded=0;orthogonalLoop=1;jettySize=auto;html=1;entryX=1;entryY=0.5;entryDx=0;entryDy=0;endArrow=none;endFill=0;fillColor=#dae8fc;strokeColor=#6c8ebf;" edge="1" parent="vtlgAywxxKTXz_kTH_dY-1" source="rlwAqJl2fLDkXMFUihCK-11" target="rlwAqJl2fLDkXMFUihCK-20">
          <mxGeometry relative="1" as="geometry"/>
        </mxCell>
        <mxCell id="rlwAqJl2fLDkXMFUihCK-11" value="" style="ellipse;whiteSpace=wrap;html=1;aspect=fixed;fillColor=#dae8fc;strokeColor=#6c8ebf;" vertex="1" parent="vtlgAywxxKTXz_kTH_dY-1">
          <mxGeometry x="730" y="172.5" width="30" height="30" as="geometry"/>
        </mxCell>
        <mxCell id="rlwAqJl2fLDkXMFUihCK-28" style="edgeStyle=none;rounded=0;orthogonalLoop=1;jettySize=auto;html=1;entryX=0;entryY=1;entryDx=0;entryDy=0;endArrow=none;endFill=0;fillColor=#dae8fc;strokeColor=#6c8ebf;" edge="1" parent="vtlgAywxxKTXz_kTH_dY-1" source="rlwAqJl2fLDkXMFUihCK-12" target="rlwAqJl2fLDkXMFUihCK-20">
          <mxGeometry relative="1" as="geometry"/>
        </mxCell>
        <mxCell id="rlwAqJl2fLDkXMFUihCK-12" value="" style="ellipse;whiteSpace=wrap;html=1;aspect=fixed;fillColor=#dae8fc;strokeColor=#6c8ebf;" vertex="1" parent="vtlgAywxxKTXz_kTH_dY-1">
          <mxGeometry x="590" y="237.5" width="30" height="30" as="geometry"/>
        </mxCell>
        <mxCell id="rlwAqJl2fLDkXMFUihCK-18" value="" style="ellipse;whiteSpace=wrap;html=1;aspect=fixed;fillColor=#d5e8d4;strokeColor=#82b366;" vertex="1" parent="vtlgAywxxKTXz_kTH_dY-1">
          <mxGeometry x="550" y="140" width="30" height="30" as="geometry"/>
        </mxCell>
        <mxCell id="rlwAqJl2fLDkXMFUihCK-19" value="" style="ellipse;whiteSpace=wrap;html=1;aspect=fixed;fillColor=#d5e8d4;strokeColor=#82b366;" vertex="1" parent="vtlgAywxxKTXz_kTH_dY-1">
          <mxGeometry x="620" y="102.5" width="30" height="30" as="geometry"/>
        </mxCell>
        <mxCell id="rlwAqJl2fLDkXMFUihCK-20" value="" style="ellipse;whiteSpace=wrap;html=1;aspect=fixed;fillColor=#d5e8d4;strokeColor=#82b366;" vertex="1" parent="vtlgAywxxKTXz_kTH_dY-1">
          <mxGeometry x="640" y="187.5" width="30" height="30" as="geometry"/>
        </mxCell>
        <mxCell id="rlwAqJl2fLDkXMFUihCK-30" value="" style="shape=flexArrow;endArrow=classic;html=1;" edge="1" parent="vtlgAywxxKTXz_kTH_dY-1">
          <mxGeometry width="50" height="50" relative="1" as="geometry">
            <mxPoint x="790" y="172.5" as="sourcePoint"/>
            <mxPoint x="870" y="172.5" as="targetPoint"/>
          </mxGeometry>
        </mxCell>
        <mxCell id="rlwAqJl2fLDkXMFUihCK-31" style="rounded=0;orthogonalLoop=1;jettySize=auto;html=1;entryX=0;entryY=0.5;entryDx=0;entryDy=0;endArrow=none;endFill=0;fillColor=#dae8fc;strokeColor=#6c8ebf;" edge="1" parent="vtlgAywxxKTXz_kTH_dY-1" source="rlwAqJl2fLDkXMFUihCK-32" target="rlwAqJl2fLDkXMFUihCK-41">
          <mxGeometry relative="1" as="geometry"/>
        </mxCell>
        <mxCell id="rlwAqJl2fLDkXMFUihCK-32" value="" style="ellipse;whiteSpace=wrap;html=1;aspect=fixed;fillColor=#dae8fc;strokeColor=#6c8ebf;" vertex="1" parent="vtlgAywxxKTXz_kTH_dY-1">
          <mxGeometry x="900" y="160" width="30" height="30" as="geometry"/>
        </mxCell>
        <mxCell id="rlwAqJl2fLDkXMFUihCK-33" style="edgeStyle=none;rounded=0;orthogonalLoop=1;jettySize=auto;html=1;entryX=0;entryY=0.5;entryDx=0;entryDy=0;endArrow=none;endFill=0;fillColor=#dae8fc;strokeColor=#6c8ebf;" edge="1" parent="vtlgAywxxKTXz_kTH_dY-1" source="rlwAqJl2fLDkXMFUihCK-34" target="rlwAqJl2fLDkXMFUihCK-42">
          <mxGeometry relative="1" as="geometry"/>
        </mxCell>
        <mxCell id="rlwAqJl2fLDkXMFUihCK-34" value="" style="ellipse;whiteSpace=wrap;html=1;aspect=fixed;fillColor=#dae8fc;strokeColor=#6c8ebf;" vertex="1" parent="vtlgAywxxKTXz_kTH_dY-1">
          <mxGeometry x="980" y="75" width="30" height="30" as="geometry"/>
        </mxCell>
        <mxCell id="rlwAqJl2fLDkXMFUihCK-35" style="edgeStyle=none;rounded=0;orthogonalLoop=1;jettySize=auto;html=1;entryX=1;entryY=0.5;entryDx=0;entryDy=0;endArrow=none;endFill=0;fillColor=#dae8fc;strokeColor=#6c8ebf;" edge="1" parent="vtlgAywxxKTXz_kTH_dY-1" source="rlwAqJl2fLDkXMFUihCK-36" target="rlwAqJl2fLDkXMFUihCK-42">
          <mxGeometry relative="1" as="geometry"/>
        </mxCell>
        <mxCell id="rlwAqJl2fLDkXMFUihCK-36" value="" style="ellipse;whiteSpace=wrap;html=1;aspect=fixed;fillColor=#dae8fc;strokeColor=#6c8ebf;" vertex="1" parent="vtlgAywxxKTXz_kTH_dY-1">
          <mxGeometry x="1130" y="90" width="30" height="30" as="geometry"/>
        </mxCell>
        <mxCell id="rlwAqJl2fLDkXMFUihCK-37" style="edgeStyle=none;rounded=0;orthogonalLoop=1;jettySize=auto;html=1;entryX=1;entryY=0.5;entryDx=0;entryDy=0;endArrow=none;endFill=0;fillColor=#dae8fc;strokeColor=#6c8ebf;" edge="1" parent="vtlgAywxxKTXz_kTH_dY-1" source="rlwAqJl2fLDkXMFUihCK-38" target="rlwAqJl2fLDkXMFUihCK-43">
          <mxGeometry relative="1" as="geometry"/>
        </mxCell>
        <mxCell id="rlwAqJl2fLDkXMFUihCK-38" value="" style="ellipse;whiteSpace=wrap;html=1;aspect=fixed;fillColor=#dae8fc;strokeColor=#6c8ebf;" vertex="1" parent="vtlgAywxxKTXz_kTH_dY-1">
          <mxGeometry x="1160" y="175" width="30" height="30" as="geometry"/>
        </mxCell>
        <mxCell id="rlwAqJl2fLDkXMFUihCK-39" style="edgeStyle=none;rounded=0;orthogonalLoop=1;jettySize=auto;html=1;entryX=0;entryY=1;entryDx=0;entryDy=0;endArrow=none;endFill=0;fillColor=#dae8fc;strokeColor=#6c8ebf;" edge="1" parent="vtlgAywxxKTXz_kTH_dY-1" source="rlwAqJl2fLDkXMFUihCK-40" target="rlwAqJl2fLDkXMFUihCK-43">
          <mxGeometry relative="1" as="geometry"/>
        </mxCell>
        <mxCell id="rlwAqJl2fLDkXMFUihCK-40" value="" style="ellipse;whiteSpace=wrap;html=1;aspect=fixed;fillColor=#dae8fc;strokeColor=#6c8ebf;" vertex="1" parent="vtlgAywxxKTXz_kTH_dY-1">
          <mxGeometry x="1020" y="240" width="30" height="30" as="geometry"/>
        </mxCell>
        <mxCell id="rlwAqJl2fLDkXMFUihCK-45" style="edgeStyle=none;rounded=0;orthogonalLoop=1;jettySize=auto;html=1;entryX=0;entryY=0.5;entryDx=0;entryDy=0;endArrow=none;endFill=0;fillColor=#d5e8d4;strokeColor=#82b366;" edge="1" parent="vtlgAywxxKTXz_kTH_dY-1" source="rlwAqJl2fLDkXMFUihCK-41" target="rlwAqJl2fLDkXMFUihCK-44">
          <mxGeometry relative="1" as="geometry"/>
        </mxCell>
        <mxCell id="rlwAqJl2fLDkXMFUihCK-41" value="" style="ellipse;whiteSpace=wrap;html=1;aspect=fixed;fillColor=#d5e8d4;strokeColor=#82b366;" vertex="1" parent="vtlgAywxxKTXz_kTH_dY-1">
          <mxGeometry x="980" y="142.5" width="30" height="30" as="geometry"/>
        </mxCell>
        <mxCell id="rlwAqJl2fLDkXMFUihCK-46" style="edgeStyle=none;rounded=0;orthogonalLoop=1;jettySize=auto;html=1;entryX=0.5;entryY=0;entryDx=0;entryDy=0;endArrow=none;endFill=0;fillColor=#d5e8d4;strokeColor=#82b366;" edge="1" parent="vtlgAywxxKTXz_kTH_dY-1" source="rlwAqJl2fLDkXMFUihCK-42" target="rlwAqJl2fLDkXMFUihCK-44">
          <mxGeometry relative="1" as="geometry"/>
        </mxCell>
        <mxCell id="rlwAqJl2fLDkXMFUihCK-42" value="" style="ellipse;whiteSpace=wrap;html=1;aspect=fixed;fillColor=#d5e8d4;strokeColor=#82b366;" vertex="1" parent="vtlgAywxxKTXz_kTH_dY-1">
          <mxGeometry x="1050" y="105" width="30" height="30" as="geometry"/>
        </mxCell>
        <mxCell id="rlwAqJl2fLDkXMFUihCK-47" style="edgeStyle=none;rounded=0;orthogonalLoop=1;jettySize=auto;html=1;exitX=0;exitY=0;exitDx=0;exitDy=0;entryX=1;entryY=1;entryDx=0;entryDy=0;endArrow=none;endFill=0;fillColor=#d5e8d4;strokeColor=#82b366;" edge="1" parent="vtlgAywxxKTXz_kTH_dY-1" source="rlwAqJl2fLDkXMFUihCK-43" target="rlwAqJl2fLDkXMFUihCK-44">
          <mxGeometry relative="1" as="geometry"/>
        </mxCell>
        <mxCell id="rlwAqJl2fLDkXMFUihCK-43" value="" style="ellipse;whiteSpace=wrap;html=1;aspect=fixed;fillColor=#d5e8d4;strokeColor=#82b366;" vertex="1" parent="vtlgAywxxKTXz_kTH_dY-1">
          <mxGeometry x="1070" y="190" width="30" height="30" as="geometry"/>
        </mxCell>
        <mxCell id="rlwAqJl2fLDkXMFUihCK-44" value="" style="ellipse;whiteSpace=wrap;html=1;aspect=fixed;fillColor=#fff2cc;strokeColor=#d6b656;" vertex="1" parent="vtlgAywxxKTXz_kTH_dY-1">
          <mxGeometry x="1035" y="155" width="30" height="30" as="geometry"/>
        </mxCell>
      </root>
    </mxGraphModel>
  </diagram>
  <diagram id="wLOojtnr9P_OHGuDVN0L" name="第 4 页">
    <mxGraphModel dx="983" dy="594" grid="1" gridSize="10" guides="1" tooltips="1" connect="1" arrows="1" fold="1" page="1" pageScale="1" pageWidth="827" pageHeight="1169" math="0" shadow="0">
      <root>
        <mxCell id="rSJ8esE4FRN6r8KbOJYq-0"/>
        <mxCell id="rSJ8esE4FRN6r8KbOJYq-1" parent="rSJ8esE4FRN6r8KbOJYq-0"/>
        <mxCell id="rSJ8esE4FRN6r8KbOJYq-30" style="edgeStyle=none;rounded=0;orthogonalLoop=1;jettySize=auto;html=1;exitX=0;exitY=1;exitDx=0;exitDy=0;entryX=1;entryY=0.5;entryDx=0;entryDy=0;endArrow=none;endFill=0;fillColor=#dae8fc;strokeColor=#6c8ebf;" edge="1" parent="rSJ8esE4FRN6r8KbOJYq-1" source="rSJ8esE4FRN6r8KbOJYq-2" target="rSJ8esE4FRN6r8KbOJYq-27">
          <mxGeometry relative="1" as="geometry"/>
        </mxCell>
        <mxCell id="rSJ8esE4FRN6r8KbOJYq-31" style="edgeStyle=none;rounded=0;orthogonalLoop=1;jettySize=auto;html=1;exitX=0;exitY=1;exitDx=0;exitDy=0;endArrow=none;endFill=0;entryX=1;entryY=0;entryDx=0;entryDy=0;fillColor=#dae8fc;strokeColor=#6c8ebf;" edge="1" parent="rSJ8esE4FRN6r8KbOJYq-1" source="rSJ8esE4FRN6r8KbOJYq-2" target="rSJ8esE4FRN6r8KbOJYq-26">
          <mxGeometry relative="1" as="geometry">
            <mxPoint x="90" y="190" as="targetPoint"/>
          </mxGeometry>
        </mxCell>
        <mxCell id="rSJ8esE4FRN6r8KbOJYq-32" style="edgeStyle=none;rounded=0;orthogonalLoop=1;jettySize=auto;html=1;exitX=0.5;exitY=1;exitDx=0;exitDy=0;entryX=0.5;entryY=0;entryDx=0;entryDy=0;endArrow=none;endFill=0;fillColor=#dae8fc;strokeColor=#6c8ebf;" edge="1" parent="rSJ8esE4FRN6r8KbOJYq-1" source="rSJ8esE4FRN6r8KbOJYq-2" target="rSJ8esE4FRN6r8KbOJYq-3">
          <mxGeometry relative="1" as="geometry"/>
        </mxCell>
        <mxCell id="rSJ8esE4FRN6r8KbOJYq-2" value="3" style="ellipse;whiteSpace=wrap;html=1;aspect=fixed;fillColor=#dae8fc;strokeColor=#6c8ebf;" vertex="1" parent="rSJ8esE4FRN6r8KbOJYq-1">
          <mxGeometry x="140" y="80" width="30" height="30" as="geometry"/>
        </mxCell>
        <mxCell id="rSJ8esE4FRN6r8KbOJYq-33" style="edgeStyle=none;rounded=0;orthogonalLoop=1;jettySize=auto;html=1;exitX=0;exitY=0;exitDx=0;exitDy=0;entryX=1;entryY=1;entryDx=0;entryDy=0;endArrow=none;endFill=0;fillColor=#dae8fc;strokeColor=#6c8ebf;" edge="1" parent="rSJ8esE4FRN6r8KbOJYq-1" source="rSJ8esE4FRN6r8KbOJYq-3" target="rSJ8esE4FRN6r8KbOJYq-26">
          <mxGeometry relative="1" as="geometry"/>
        </mxCell>
        <mxCell id="rSJ8esE4FRN6r8KbOJYq-3" value="4" style="ellipse;whiteSpace=wrap;html=1;aspect=fixed;fillColor=#dae8fc;strokeColor=#6c8ebf;" vertex="1" parent="rSJ8esE4FRN6r8KbOJYq-1">
          <mxGeometry x="140" y="237.5" width="30" height="30" as="geometry"/>
        </mxCell>
        <mxCell id="rSJ8esE4FRN6r8KbOJYq-35" style="edgeStyle=none;rounded=0;orthogonalLoop=1;jettySize=auto;html=1;exitX=1;exitY=0;exitDx=0;exitDy=0;endArrow=none;endFill=0;entryX=0;entryY=1;entryDx=0;entryDy=0;fillColor=#dae8fc;strokeColor=#6c8ebf;" edge="1" parent="rSJ8esE4FRN6r8KbOJYq-1" source="rSJ8esE4FRN6r8KbOJYq-7" target="rSJ8esE4FRN6r8KbOJYq-25">
          <mxGeometry relative="1" as="geometry">
            <mxPoint x="418" y="193" as="targetPoint"/>
          </mxGeometry>
        </mxCell>
        <mxCell id="rSJ8esE4FRN6r8KbOJYq-7" value="6" style="ellipse;whiteSpace=wrap;html=1;aspect=fixed;fillColor=#dae8fc;strokeColor=#6c8ebf;" vertex="1" parent="rSJ8esE4FRN6r8KbOJYq-1">
          <mxGeometry x="370" y="132.5" width="30" height="30" as="geometry"/>
        </mxCell>
        <mxCell id="rSJ8esE4FRN6r8KbOJYq-8" value="7" style="ellipse;whiteSpace=wrap;html=1;aspect=fixed;fillColor=#dae8fc;strokeColor=#6c8ebf;" vertex="1" parent="rSJ8esE4FRN6r8KbOJYq-1">
          <mxGeometry x="540" y="117.5" width="30" height="30" as="geometry"/>
        </mxCell>
        <mxCell id="rSJ8esE4FRN6r8KbOJYq-9" value="5" style="ellipse;whiteSpace=wrap;html=1;aspect=fixed;fillColor=#dae8fc;strokeColor=#6c8ebf;" vertex="1" parent="rSJ8esE4FRN6r8KbOJYq-1">
          <mxGeometry x="240" y="162.5" width="30" height="30" as="geometry"/>
        </mxCell>
        <mxCell id="rSJ8esE4FRN6r8KbOJYq-18" style="edgeStyle=none;rounded=0;orthogonalLoop=1;jettySize=auto;html=1;exitX=0;exitY=0;exitDx=0;exitDy=0;entryX=1;entryY=1;entryDx=0;entryDy=0;endArrow=none;endFill=0;fillColor=#ffe6cc;strokeColor=#d79b00;" edge="1" parent="rSJ8esE4FRN6r8KbOJYq-1" source="rSJ8esE4FRN6r8KbOJYq-11" target="rSJ8esE4FRN6r8KbOJYq-9">
          <mxGeometry relative="1" as="geometry"/>
        </mxCell>
        <mxCell id="rSJ8esE4FRN6r8KbOJYq-20" style="edgeStyle=none;rounded=0;orthogonalLoop=1;jettySize=auto;html=1;exitX=0;exitY=0;exitDx=0;exitDy=0;entryX=1;entryY=0.5;entryDx=0;entryDy=0;endArrow=none;endFill=0;fillColor=#ffe6cc;strokeColor=#d79b00;" edge="1" parent="rSJ8esE4FRN6r8KbOJYq-1" source="rSJ8esE4FRN6r8KbOJYq-11" target="rSJ8esE4FRN6r8KbOJYq-3">
          <mxGeometry relative="1" as="geometry"/>
        </mxCell>
        <mxCell id="rSJ8esE4FRN6r8KbOJYq-21" style="edgeStyle=none;rounded=0;orthogonalLoop=1;jettySize=auto;html=1;exitX=1;exitY=0;exitDx=0;exitDy=0;entryX=0;entryY=1;entryDx=0;entryDy=0;endArrow=none;endFill=0;fillColor=#ffe6cc;strokeColor=#d79b00;" edge="1" parent="rSJ8esE4FRN6r8KbOJYq-1" source="rSJ8esE4FRN6r8KbOJYq-11" target="rSJ8esE4FRN6r8KbOJYq-7">
          <mxGeometry relative="1" as="geometry"/>
        </mxCell>
        <mxCell id="rSJ8esE4FRN6r8KbOJYq-24" style="edgeStyle=none;rounded=0;orthogonalLoop=1;jettySize=auto;html=1;exitX=1;exitY=0.5;exitDx=0;exitDy=0;entryX=0;entryY=1;entryDx=0;entryDy=0;endArrow=none;endFill=0;fillColor=#ffe6cc;strokeColor=#d79b00;" edge="1" parent="rSJ8esE4FRN6r8KbOJYq-1" source="rSJ8esE4FRN6r8KbOJYq-11" target="rSJ8esE4FRN6r8KbOJYq-8">
          <mxGeometry relative="1" as="geometry"/>
        </mxCell>
        <mxCell id="rSJ8esE4FRN6r8KbOJYq-11" value="2" style="ellipse;whiteSpace=wrap;html=1;aspect=fixed;fillColor=#fff2cc;strokeColor=#d6b656;" vertex="1" parent="rSJ8esE4FRN6r8KbOJYq-1">
          <mxGeometry x="310" y="267.5" width="30" height="30" as="geometry"/>
        </mxCell>
        <mxCell id="rSJ8esE4FRN6r8KbOJYq-13" style="edgeStyle=none;rounded=0;orthogonalLoop=1;jettySize=auto;html=1;exitX=0;exitY=1;exitDx=0;exitDy=0;entryX=1;entryY=0;entryDx=0;entryDy=0;endArrow=none;endFill=0;fillColor=#d5e8d4;strokeColor=#82b366;" edge="1" parent="rSJ8esE4FRN6r8KbOJYq-1" source="rSJ8esE4FRN6r8KbOJYq-12" target="rSJ8esE4FRN6r8KbOJYq-2">
          <mxGeometry relative="1" as="geometry"/>
        </mxCell>
        <mxCell id="rSJ8esE4FRN6r8KbOJYq-14" style="edgeStyle=none;rounded=0;orthogonalLoop=1;jettySize=auto;html=1;exitX=1;exitY=0.5;exitDx=0;exitDy=0;entryX=0;entryY=0.5;entryDx=0;entryDy=0;endArrow=none;endFill=0;fillColor=#d5e8d4;strokeColor=#82b366;" edge="1" parent="rSJ8esE4FRN6r8KbOJYq-1" source="rSJ8esE4FRN6r8KbOJYq-12" target="rSJ8esE4FRN6r8KbOJYq-7">
          <mxGeometry relative="1" as="geometry"/>
        </mxCell>
        <mxCell id="rSJ8esE4FRN6r8KbOJYq-16" style="edgeStyle=none;rounded=0;orthogonalLoop=1;jettySize=auto;html=1;exitX=1;exitY=0.5;exitDx=0;exitDy=0;entryX=0;entryY=0;entryDx=0;entryDy=0;endArrow=none;endFill=0;fillColor=#d5e8d4;strokeColor=#82b366;" edge="1" parent="rSJ8esE4FRN6r8KbOJYq-1" source="rSJ8esE4FRN6r8KbOJYq-12" target="rSJ8esE4FRN6r8KbOJYq-8">
          <mxGeometry relative="1" as="geometry"/>
        </mxCell>
        <mxCell id="rSJ8esE4FRN6r8KbOJYq-17" style="edgeStyle=none;rounded=0;orthogonalLoop=1;jettySize=auto;html=1;exitX=0;exitY=1;exitDx=0;exitDy=0;entryX=0.5;entryY=0;entryDx=0;entryDy=0;endArrow=none;endFill=0;fillColor=#d5e8d4;strokeColor=#82b366;" edge="1" parent="rSJ8esE4FRN6r8KbOJYq-1" source="rSJ8esE4FRN6r8KbOJYq-12" target="rSJ8esE4FRN6r8KbOJYq-9">
          <mxGeometry relative="1" as="geometry"/>
        </mxCell>
        <mxCell id="rSJ8esE4FRN6r8KbOJYq-12" value="1" style="ellipse;whiteSpace=wrap;html=1;aspect=fixed;fillColor=#fff2cc;strokeColor=#d6b656;" vertex="1" parent="rSJ8esE4FRN6r8KbOJYq-1">
          <mxGeometry x="295" y="10" width="30" height="30" as="geometry"/>
        </mxCell>
        <mxCell id="rSJ8esE4FRN6r8KbOJYq-36" style="edgeStyle=none;rounded=0;orthogonalLoop=1;jettySize=auto;html=1;exitX=1;exitY=0.5;exitDx=0;exitDy=0;entryX=0;entryY=0.5;entryDx=0;entryDy=0;endArrow=none;endFill=0;fillColor=#dae8fc;strokeColor=#6c8ebf;" edge="1" parent="rSJ8esE4FRN6r8KbOJYq-1" source="rSJ8esE4FRN6r8KbOJYq-25" target="rSJ8esE4FRN6r8KbOJYq-8">
          <mxGeometry relative="1" as="geometry"/>
        </mxCell>
        <mxCell id="rSJ8esE4FRN6r8KbOJYq-25" value="10" style="ellipse;whiteSpace=wrap;html=1;aspect=fixed;fillColor=#dae8fc;strokeColor=#6c8ebf;" vertex="1" parent="rSJ8esE4FRN6r8KbOJYq-1">
          <mxGeometry x="420" y="95" width="30" height="30" as="geometry"/>
        </mxCell>
        <mxCell id="rSJ8esE4FRN6r8KbOJYq-34" style="edgeStyle=none;rounded=0;orthogonalLoop=1;jettySize=auto;html=1;exitX=0.5;exitY=0;exitDx=0;exitDy=0;entryX=0.5;entryY=1;entryDx=0;entryDy=0;endArrow=none;endFill=0;fillColor=#dae8fc;strokeColor=#6c8ebf;" edge="1" parent="rSJ8esE4FRN6r8KbOJYq-1" source="rSJ8esE4FRN6r8KbOJYq-26" target="rSJ8esE4FRN6r8KbOJYq-27">
          <mxGeometry relative="1" as="geometry"/>
        </mxCell>
        <mxCell id="rSJ8esE4FRN6r8KbOJYq-26" value="9" style="ellipse;whiteSpace=wrap;html=1;aspect=fixed;fillColor=#dae8fc;strokeColor=#6c8ebf;" vertex="1" parent="rSJ8esE4FRN6r8KbOJYq-1">
          <mxGeometry x="70" y="192.5" width="30" height="30" as="geometry"/>
        </mxCell>
        <mxCell id="rSJ8esE4FRN6r8KbOJYq-27" value="8" style="ellipse;whiteSpace=wrap;html=1;aspect=fixed;fillColor=#dae8fc;strokeColor=#6c8ebf;" vertex="1" parent="rSJ8esE4FRN6r8KbOJYq-1">
          <mxGeometry x="60" y="110" width="30" height="30" as="geometry"/>
        </mxCell>
      </root>
    </mxGraphModel>
  </diagram>
</mxfile>
